<svg
    version="1.1"
    xmlns="http://www.w3.org/2000/svg"
    viewBox="0 0 512 512"
    height="100%"
    width="100%"
  >
    <g>
      <path d="M488 0H8C3.586 0 0 3.586 0 8v480c0 4.414 3.586 8 8 8h480c4.414 0 8-3.586 8-8V8c0-4.414-3.586-8-8-8zm-8 16v80H16V16zM16 480V112h464v368zm0 0" />
      <path d="M56 80c13.23 0 24-10.77 24-24S69.23 32 56 32 32 42.77 32 56s10.77 24 24 24zm0-32c4.406 0 8 3.594 8 8s-3.594 8-8 8-8-3.594-8-8 3.594-8 8-8zm0 0" />
      <path d="M120 80c13.23 0 24-10.77 24-24s-10.77-24-24-24-24 10.77-24 24 10.77 24 24 24zm0-32c4.406 0 8 3.594 8 8s-3.594 8-8 8-8-3.594-8-8 3.594-8 8-8zm0 0" />
      <path d="M184 80c13.23 0 24-10.77 24-24s-10.77-24-24-24-24 10.77-24 24 10.77 24 24 24zm0-32c4.406 0 8 3.594 8 8s-3.594 8-8 8-8-3.594-8-8 3.594-8 8-8zm0 0" />
      <path d="M112 128c-44.113 0-80 35.887-80 80s35.887 80 80 80 80-35.887 80-80-35.887-80-80-80zm0 144c-35.29 0-64-28.71-64-64s28.71-64 64-64 64 28.71 64 64-28.71 64-64 64zm0 0" />
      <path d="M112 304c-44.113 0-80 35.887-80 80s35.887 80 80 80 80-35.887 80-80-35.887-80-80-80zm0 144c-35.29 0-64-28.71-64-64s28.71-64 64-64 64 28.71 64 64-28.71 64-64 64zm0 0" />
      <path d="M91.574 168.84a8.022 8.022 0 0 0-7.781.351A8.024 8.024 0 0 0 80 176v64a8.024 8.024 0 0 0 3.793 6.809A8 8 0 0 0 88 248c1.223 0 2.45-.281 3.574-.84l64-32a8.006 8.006 0 0 0 0-14.32zM96 227.055v-38.11L134.113 208zm0 0" />
      <path d="M96 368v8H80v16h16v32h16v-32h16v-16h-16v-8c0-4.406 3.594-8 8-8h24v-16h-24c-13.23 0-24 10.77-24 24zm0 0" />
      <path d="M440 360H311.793c-7.313-9.656-18.785-16-31.793-16s-24.488 6.344-31.793 16H232c-13.23 0-24 10.77-24 24s10.77 24 24 24h16.207c7.313 9.656 18.785 16 31.793 16s24.488-6.344 31.793-16H440c13.23 0 24-10.77 24-24s-10.77-24-24-24zm-208 32c-4.406 0-8-3.594-8-8s3.594-8 8-8h8.809a40.038 40.038 0 0 0 0 16zm48 16c-13.23 0-24-10.77-24-24s10.77-24 24-24 24 10.77 24 24-10.77 24-24 24zm160-16H319.191a40.038 40.038 0 0 0 0-16H440c4.406 0 8 3.594 8 8s-3.594 8-8 8zm0 0" />
      <path d="M440 184h-16.207c-7.313-9.656-18.785-16-31.793-16s-24.488 6.344-31.793 16H232c-13.23 0-24 10.77-24 24s10.77 24 24 24h128.207c7.313 9.656 18.785 16 31.793 16s24.488-6.344 31.793-16H440c13.23 0 24-10.77 24-24s-10.77-24-24-24zm-208 32c-4.406 0-8-3.594-8-8s3.594-8 8-8h120.809a40.038 40.038 0 0 0 0 16zm160 16c-13.23 0-24-10.77-24-24s10.77-24 24-24 24 10.77 24 24-10.77 24-24 24zm48-16h-8.809a40.038 40.038 0 0 0 0-16H440c4.406 0 8 3.594 8 8s-3.594 8-8 8zm0 0" />
    </g>
  </svg>