<svg
    version="1.1"
    xmlns="http://www.w3.org/2000/svg"
    viewBox="0 0 512 512"
    height="100%"
    width="100%"
  >
    <g>
      <path d="M488 0H8C3.574 0 0 3.586 0 8v304c0 4.426 3.574 8 8 8h8v24c0 4.426 3.574 8 8 8h168v48H56a7.99 7.99 0 0 0-8 8v80c0 4.426 3.574 8 8 8h384c4.426 0 8-3.574 8-8v-80c0-4.426-3.574-8-8-8H304v-48h168c4.426 0 8-3.574 8-8v-24h8c4.426 0 8-3.574 8-8V8c0-4.414-3.574-8-8-8zm-56 480H64v-64h368zm-144-80h-80v-48h80zm176-64H32v-16h432zm16-32H16V16h464zm0 0" />
      <path d="M448 272h-32v16h40c4.426 0 8-3.574 8-8v-40h-16zm0 0" />
      <path d="M48 48h32V32H40c-4.426 0-8 3.586-8 8v40h16zm0 0" />
      <path d="M448 80h16V40c0-4.414-3.574-8-8-8h-40v16h32zm0 0" />
      <path d="M40 288h40v-16H48v-32H32v40c0 4.426 3.574 8 8 8zm0 0" />
      <path d="M118.527 144c-3.312-9.29-12.113-16-22.527-16-13.23 0-24 10.77-24 24s10.77 24 24 24c10.414 0 19.215-6.71 22.527-16H152v16h-24c-2.129 0-4.16.84-5.656 2.344l-16.063 16.062C103.152 192.902 99.695 192 96 192c-13.23 0-24 10.77-24 24s10.77 24 24 24 24-10.77 24-24c0-3.695-.902-7.152-2.406-10.281L131.313 192H152v8c0 4.414 3.574 8 8 8h8v33.473c-9.29 3.312-16 12.113-16 22.527 0 13.23 10.77 24 24 24s24-10.77 24-24c0-10.414-6.71-19.215-16-22.527V208h16v24c0 2.121.84 4.16 2.344 5.656l16.062 16.063C216.902 256.848 216 260.305 216 264c0 13.23 10.77 24 24 24s24-10.77 24-24-10.77-24-24-24c-3.695 0-7.152.902-10.281 2.406L216 228.687V208h20.688l21.656 21.656A7.964 7.964 0 0 0 264 232h17.473c3.312 9.29 12.113 16 22.527 16 13.23 0 24-10.77 24-24s-10.77-24-24-24c-10.414 0-19.215 6.71-22.527 16h-14.16L248 196.687V168h33.473c3.312 9.29 12.113 16 22.527 16 13.23 0 24-10.77 24-24s-10.77-24-24-24c-10.414 0-19.215 6.71-22.527 16H248v-24h16c2.129 0 4.16-.84 5.656-2.344l15.266-15.265C289.305 116.19 296.184 120 304 120c13.23 0 24-10.77 24-24s-10.77-24-24-24c-11.977 0-21.84 8.84-23.625 20.313L260.687 112H248V99.312l19.688-19.687C279.16 77.84 288 67.977 288 56c0-13.23-10.77-24-24-24s-24 10.77-24 24c0 7.816 3.809 14.695 9.61 19.078l-15.266 15.266A7.978 7.978 0 0 0 232 96v16h-24V78.527c9.29-3.312 16-12.113 16-22.527 0-13.23-10.77-24-24-24s-24 10.77-24 24c0 10.414 6.71 19.215 16 22.527V112h-28.688L144 92.687v-14.16c9.29-3.312 16-12.113 16-22.527 0-13.23-10.77-24-24-24s-24 10.77-24 24c0 10.414 6.71 19.215 16 22.527V96c0 2.121.84 4.16 2.344 5.656L152 123.312V144zM96 160c-4.414 0-8-3.594-8-8s3.586-8 8-8 8 3.594 8 8-3.586 8-8 8zm0 64c-4.414 0-8-3.594-8-8s3.586-8 8-8 8 3.594 8 8-3.586 8-8 8zm80 48c-4.414 0-8-3.586-8-8s3.586-8 8-8 8 3.586 8 8-3.586 8-8 8zm72-8c0 4.414-3.586 8-8 8s-8-3.586-8-8 3.586-8 8-8 8 3.586 8 8zm56-48c4.414 0 8 3.594 8 8s-3.586 8-8 8-8-3.594-8-8 3.586-8 8-8zm0-64c4.414 0 8 3.594 8 8s-3.586 8-8 8-8-3.594-8-8 3.586-8 8-8zm0-64c4.414 0 8 3.594 8 8s-3.586 8-8 8-8-3.594-8-8 3.586-8 8-8zm-40-40c4.414 0 8 3.594 8 8s-3.586 8-8 8-8-3.594-8-8 3.586-8 8-8zm-64 0c4.414 0 8 3.594 8 8s-3.586 8-8 8-8-3.594-8-8 3.586-8 8-8zm-64 0c4.414 0 8 3.594 8 8s-3.586 8-8 8-8-3.594-8-8 3.586-8 8-8zm32 80h64v64h-64zm0 0" />
      <path d="M400 448h16v16h-16zm0 0" />
      <path d="M368 448h16v16h-16zm0 0" />
      <path d="M336 448h16v16h-16zm0 0" />
      <path d="M96 472c13.23 0 24-10.77 24-24s-10.77-24-24-24-24 10.77-24 24 10.77 24 24 24zm0-32c4.414 0 8 3.586 8 8s-3.586 8-8 8-8-3.586-8-8 3.586-8 8-8zm0 0" />
      <path d="M160 472c13.23 0 24-10.77 24-24s-10.77-24-24-24-24 10.77-24 24 10.77 24 24 24zm0-32c4.414 0 8 3.586 8 8s-3.586 8-8 8-8-3.586-8-8 3.586-8 8-8zm0 0" />
      <path d="M304 432h16v32h-16zm0 0" />
      <path d="M272 432h16v32h-16zm0 0" />
      <path d="M348.938 255.39c.992.41 2.03.61 3.062.61a8.008 8.008 0 0 0 5.656-2.344L379.312 232H416c3.23 0 6.16-1.953 7.39-4.938a7.991 7.991 0 0 0-1.734-8.718l-64-64c-2.289-2.297-5.726-2.961-8.719-1.735A8 8 0 0 0 344 160v88a8 8 0 0 0 4.938 7.39zM360 179.314L396.688 216H376c-2.129 0-4.16.84-5.656 2.344L360 228.688zm0 0" />
    </g>
  </svg>