<svg
    version="1.1"
    xmlns="http://www.w3.org/2000/svg"
    viewBox="0 0 512 512"
    height="100%"
    width="100%"
  >
    <g>
      <path d="M488 0H8C3.586 0 0 3.574 0 8v480c0 4.426 3.586 8 8 8h480c4.414 0 8-3.574 8-8V8c0-4.426-3.586-8-8-8zm-8 16v80H16V16zM16 480V112h464v368zm0 0" />
      <path d="M56 80c13.23 0 24-10.77 24-24S69.23 32 56 32 32 42.77 32 56s10.77 24 24 24zm0-32c4.406 0 8 3.586 8 8s-3.594 8-8 8-8-3.586-8-8 3.594-8 8-8zm0 0" />
      <path d="M120 80c13.23 0 24-10.77 24-24s-10.77-24-24-24-24 10.77-24 24 10.77 24 24 24zm0-32c4.406 0 8 3.586 8 8s-3.594 8-8 8-8-3.586-8-8 3.594-8 8-8zm0 0" />
      <path d="M184 80c13.23 0 24-10.77 24-24s-10.77-24-24-24-24 10.77-24 24 10.77 24 24 24zm0-32c4.406 0 8 3.586 8 8s-3.594 8-8 8-8-3.586-8-8 3.594-8 8-8zm0 0" />
      <path d="M376 128H152c-4.414 0-8 3.574-8 8v24h-24c-4.414 0-8 3.574-8 8v288c0 4.426 3.586 8 8 8h224c4.414 0 8-3.574 8-8v-24h24c4.414 0 8-3.574 8-8V136c0-4.426-3.586-8-8-8zm-40 320H128V176h144v56c0 4.426 3.586 8 8 8h56zm-11.313-224H288v-36.688zM368 416h-16V232a7.953 7.953 0 0 0-2.352-5.664l-63.984-63.984A7.953 7.953 0 0 0 280 160H160v-16h208zm0 0" />
      <path d="M144 192h112v16H144zm0 0" />
      <path d="M144 224h112v16H144zm0 0" />
      <path d="M144 256h176v16H144zm0 0" />
      <path d="M144 288h176v16H144zm0 0" />
      <path d="M184 320h-32c-4.414 0-8 3.574-8 8v32c0 4.426 3.586 8 8 8h32c4.414 0 8-3.574 8-8v-32c0-4.426-3.586-8-8-8zm-8 32h-16v-16h16zm0 0" />
      <path d="M184 384h-32c-4.414 0-8 3.574-8 8v32c0 4.426 3.586 8 8 8h32c4.414 0 8-3.574 8-8v-32c0-4.426-3.586-8-8-8zm-8 32h-16v-16h16zm0 0" />
      <path d="M208 352h112v16H208zm0 0" />
      <path d="M208 416h112v16H208zm0 0" />
    </g>
  </svg>