<svg
    version="1.1"
    xmlns="http://www.w3.org/2000/svg"
    viewBox="0 0 512 512"
    height="100%"
    width="100%"
  >
    <g fill="#111111">
      <path d="M495.614 153H310.386c-9.035 0-16.386 7.351-16.386 16.386V188h-30V85h28.614C301.649 85 309 77.649 309 68.614V16.386C309 7.351 301.649 0 292.614 0H78.386C69.351 0 62 7.351 62 16.386v52.229C62 77.649 69.351 85 78.386 85h44.864a7.5 7.5 0 0 0 7.5-7.5 7.5 7.5 0 0 0-7.5-7.5H78.386A1.388 1.388 0 0 1 77 68.614V16.386c0-.764.622-1.386 1.386-1.386h214.229c.764 0 1.386.622 1.386 1.386v52.229c0 .764-.622 1.386-1.386 1.386H153.25a7.5 7.5 0 0 0-7.5 7.5 7.5 7.5 0 0 0 7.5 7.5H249v224h-30v-18.614c0-9.035-7.351-16.386-16.386-16.386H17.386C8.351 274 1 281.351 1 290.386v52.229C1 351.649 8.351 359 17.386 359h185.229c9.035 0 16.386-7.351 16.386-16.386V324h30v103h-28.614c-9.035 0-16.386 7.351-16.386 16.386v52.229c0 9.035 7.351 16.386 16.386 16.386h214.229c9.035 0 16.386-7.351 16.386-16.386v-52.229c0-9.035-7.351-16.386-16.386-16.386H383.25a7.5 7.5 0 0 0-7.5 7.5 7.5 7.5 0 0 0 7.5 7.5h51.364c.764 0 1.386.622 1.386 1.386v52.229c0 .764-.622 1.386-1.386 1.386H220.386a1.388 1.388 0 0 1-1.386-1.386v-52.229c0-.764.622-1.386 1.386-1.386H353.25a7.5 7.5 0 0 0 7.5-7.5 7.5 7.5 0 0 0-7.5-7.5H264V203h30v18.614c0 9.035 7.351 16.386 16.386 16.386h185.229c9.035 0 16.386-7.351 16.386-16.386v-52.229C512 160.351 504.649 153 495.614 153zM204.001 342.614H204c0 .764-.622 1.386-1.386 1.386H17.386A1.388 1.388 0 0 1 16 342.614v-52.229c0-.764.622-1.386 1.386-1.386h185.229c.764 0 1.386.622 1.386 1.386v52.229zm293-121a1.39 1.39 0 0 1-1.387 1.386H310.386a1.388 1.388 0 0 1-1.386-1.386v-52.229c0-.764.622-1.386 1.386-1.386h185.229c.764 0 1.386.622 1.386 1.386v52.229z" />
      <path d="M126.67 22.724l-20.59 20.797-3.192-1.935a7.501 7.501 0 0 0-7.776 12.828l8.25 5a7.487 7.487 0 0 0 3.885 1.086c1.952 0 3.884-.76 5.333-2.224l24.75-25a7.5 7.5 0 1 0-10.66-10.552z" />
      <path d="M237.5 50a7.5 7.5 0 0 0 7.5-7.5 7.5 7.5 0 0 0-7.5-7.5h-90a7.5 7.5 0 0 0-7.5 7.5 7.5 7.5 0 0 0 7.5 7.5h90z" />
      <path d="M267.5 50a7.5 7.5 0 0 0 7.5-7.5 7.5 7.5 0 0 0-7.5-7.5h-11a7.5 7.5 0 0 0-7.5 7.5 7.5 7.5 0 0 0 7.5 7.5h11z" />
      <path d="M346.304 176.697a7.5 7.5 0 0 0-10.607 0l-13.5 13.5a7.5 7.5 0 0 0 0 10.606l12 12a7.482 7.482 0 0 0 5.304 2.197 7.5 7.5 0 0 0 5.304-12.803l-6.697-6.697 8.197-8.197a7.502 7.502 0 0 0-.001-10.606z" />
      <path d="M390.304 176.697a7.5 7.5 0 0 0-10.607 10.606l8.197 8.197-6.697 6.697A7.5 7.5 0 0 0 386.501 215a7.478 7.478 0 0 0 5.304-2.197l12-12a7.5 7.5 0 0 0 0-10.606l-13.501-13.5z" />
      <path d="M370.285 175.537a7.498 7.498 0 0 0-9.749 4.178l-10 25a7.5 7.5 0 0 0 4.179 9.749 7.462 7.462 0 0 0 2.783.539 7.503 7.503 0 0 0 6.966-4.716l10-25a7.5 7.5 0 0 0-4.179-9.75z" />
      <path d="M480.5 188h-61a7.5 7.5 0 0 0-7.5 7.5 7.5 7.5 0 0 0 7.5 7.5h61a7.5 7.5 0 0 0 7.5-7.5 7.5 7.5 0 0 0-7.5-7.5z" />
      <path d="M63.67 298.724l-20.59 20.797-3.192-1.935a7.5 7.5 0 0 0-10.302 2.527 7.5 7.5 0 0 0 2.526 10.301l8.25 5a7.487 7.487 0 0 0 3.885 1.086c1.952 0 3.884-.76 5.333-2.224l24.75-25a7.5 7.5 0 0 0-.054-10.606 7.5 7.5 0 0 0-10.606.054z" />
      <path d="M184.5 309h-99a7.5 7.5 0 0 0-7.5 7.5 7.5 7.5 0 0 0 7.5 7.5h99a7.5 7.5 0 0 0 7.5-7.5 7.5 7.5 0 0 0-7.5-7.5z" />
      <path d="M230 469.5c0 11.304 9.196 20.5 20.5 20.5s20.5-9.196 20.5-20.5-9.196-20.5-20.5-20.5-20.5 9.196-20.5 20.5zm26 0c0 3.033-2.467 5.5-5.5 5.5s-5.5-2.467-5.5-5.5 2.467-5.5 5.5-5.5 5.5 2.467 5.5 5.5z" />
      <path d="M278 469.5c0 11.304 9.196 20.5 20.5 20.5s20.5-9.196 20.5-20.5-9.196-20.5-20.5-20.5-20.5 9.196-20.5 20.5zm26 0c0 3.033-2.467 5.5-5.5 5.5a5.506 5.506 0 0 1-5.5-5.5c0-3.033 2.467-5.5 5.5-5.5s5.5 2.467 5.5 5.5z" />
      <path d="M347.5 462h-14a7.5 7.5 0 0 0-7.5 7.5 7.5 7.5 0 0 0 7.5 7.5h14a7.5 7.5 0 0 0 7.5-7.5 7.5 7.5 0 0 0-7.5-7.5z" />
      <path d="M368.5 477h49a7.5 7.5 0 0 0 7.5-7.5 7.5 7.5 0 0 0-7.5-7.5h-49a7.5 7.5 0 0 0-7.5 7.5 7.5 7.5 0 0 0 7.5 7.5z" />
      <path d="M16.171 177h38.658C63.746 177 71 169.746 71 160.83v-38.66c0-8.917-7.254-16.17-16.171-16.17H16.171C7.254 106 0 113.254 0 122.17v38.659C0 169.746 7.254 177 16.171 177zM15 122.17c0-.646.525-1.17 1.171-1.17h38.658c.646 0 1.171.525 1.171 1.17v38.659c0 .646-.525 1.17-1.171 1.17H16.171a1.172 1.172 0 0 1-1.171-1.17V122.17z" />
      <path d="M98 109.5a7.5 7.5 0 0 0 7.5 7.5h114a7.5 7.5 0 0 0 7.5-7.5 7.5 7.5 0 0 0-7.5-7.5h-114a7.5 7.5 0 0 0-7.5 7.5z" />
      <path d="M105.5 149h114a7.5 7.5 0 0 0 7.5-7.5 7.5 7.5 0 0 0-7.5-7.5h-114a7.5 7.5 0 0 0-7.5 7.5 7.5 7.5 0 0 0 7.5 7.5z" />
      <path d="M105.5 181h27a7.5 7.5 0 0 0 7.5-7.5 7.5 7.5 0 0 0-7.5-7.5h-27a7.5 7.5 0 0 0-7.5 7.5 7.5 7.5 0 0 0 7.5 7.5z" />
      <path d="M219.5 166h-61a7.5 7.5 0 0 0-7.5 7.5 7.5 7.5 0 0 0 7.5 7.5h61a7.5 7.5 0 0 0 7.5-7.5 7.5 7.5 0 0 0-7.5-7.5z" />
      <path d="M301.171 281c-8.917 0-16.171 7.254-16.171 16.17v38.659c0 8.917 7.254 16.17 16.171 16.17h38.658c8.917 0 16.171-7.254 16.171-16.17V297.17c0-8.917-7.254-16.17-16.171-16.17h-38.658zM341 297.17v38.659c0 .646-.525 1.17-1.171 1.17h-38.658a1.172 1.172 0 0 1-1.171-1.17V297.17c0-.646.525-1.17 1.171-1.17h38.658c.646 0 1.171.525 1.171 1.17z" />
      <path d="M504.5 277h-114a7.5 7.5 0 0 0-7.5 7.5 7.5 7.5 0 0 0 7.5 7.5h114a7.5 7.5 0 0 0 7.5-7.5 7.5 7.5 0 0 0-7.5-7.5z" />
      <path d="M504.5 309h-114a7.5 7.5 0 0 0-7.5 7.5 7.5 7.5 0 0 0 7.5 7.5h114a7.5 7.5 0 0 0 7.5-7.5 7.5 7.5 0 0 0-7.5-7.5z" />
      <path d="M390.5 341a7.5 7.5 0 0 0-7.5 7.5 7.5 7.5 0 0 0 7.5 7.5h27a7.5 7.5 0 0 0 7.5-7.5 7.5 7.5 0 0 0-7.5-7.5h-27z" />
      <path d="M504.5 341h-61a7.5 7.5 0 0 0-7.5 7.5 7.5 7.5 0 0 0 7.5 7.5h61a7.5 7.5 0 0 0 7.5-7.5 7.5 7.5 0 0 0-7.5-7.5z" />
    </g>
  </svg>