<svg
    version="1.1"
    xmlns="http://www.w3.org/2000/svg"
    viewBox="0 0 512 512"
    height="100%"
    width="100%"
  >
    <g fill="#111111">
      <path d="M115.19 480.642l.016.084.028.139.003.012c.144.662.374 1.29.68 1.874l.011.021c.019.036.037.071.057.106a7.454 7.454 0 0 0 2.223 2.505l.04.028.078.054.076.052.005.003a7.452 7.452 0 0 0 2.708 1.117l.07.013.072.014a7.5 7.5 0 0 0 1.473.114h165.59l.166.002c.44 0 .877-.039 1.304-.115l.091-.017.045-.009a7.467 7.467 0 0 0 2.945-1.277l.038-.027.078-.058a7.45 7.45 0 0 0 2.046-2.341l.029-.052a7.432 7.432 0 0 0 .751-2.007l.003-.012a5.69 5.69 0 0 0 .028-.139l.016-.084.012-.066c.086-.487.122-.975.112-1.457v-58.651a7.478 7.478 0 0 0-.113-1.458l-.012-.066-.016-.084-.028-.139-.003-.012a7.434 7.434 0 0 0-.798-2.09l-.023-.042-.013-.022a7.439 7.439 0 0 0-1.984-2.239l-.032-.024a4.02 4.02 0 0 0-.159-.115l-.035-.024a7.449 7.449 0 0 0-2.845-1.205 7.435 7.435 0 0 0-1.608-.138H122.717c-.43-.009-.857.02-1.275.083l-.025.004-.066.011a7.453 7.453 0 0 0-3.22 1.352l-.031.022-.078.059-.08.061-.03.024a7.452 7.452 0 0 0-1.852 2.146l-.001.003-.033.06a7.448 7.448 0 0 0-.789 2.075l-.003.012a5.69 5.69 0 0 0-.028.139l-.016.084-.012.066a7.484 7.484 0 0 0-.112 1.457v58.651a7.484 7.484 0 0 0 .124 1.523zm50.851-8.861l39.484-14.033 39.484 14.033h-78.968zm114.948-3.125l-53.079-18.865 53.079-18.865v37.73zm-35.981-40.855l-39.484 14.034-39.484-14.034h78.968zm-114.949 3.125l53.079 18.865-53.079 18.865v-37.73z" />
      <path d="M122.563 399.814h90.958a7.495 7.495 0 0 0 7.497-7.496 7.496 7.496 0 0 0-7.497-7.497h-90.958a7.495 7.495 0 0 0-7.496 7.497 7.495 7.495 0 0 0 7.496 7.496z" />
      <path d="M288.486 384.821h-49.977a7.496 7.496 0 0 0-7.497 7.497 7.495 7.495 0 0 0 7.497 7.496h49.977a7.497 7.497 0 0 0 0-14.993z" />
      <path d="M197.528 374.826h90.958a7.496 7.496 0 0 0 7.497-7.497 7.496 7.496 0 0 0-7.497-7.497h-90.958a7.498 7.498 0 0 0 0 14.994z" />
      <path d="M122.563 374.826h46.978a7.496 7.496 0 0 0 7.497-7.497 7.496 7.496 0 0 0-7.497-7.497h-46.978a7.495 7.495 0 0 0-7.496 7.497 7.495 7.495 0 0 0 7.496 7.497z" />
      <path d="M447.134 266.949a7.497 7.497 0 0 0-6.219-3.31H340.422a8.15 8.15 0 0 0-.415.011l-13.942-13.941a15.319 15.319 0 0 0-10.901-4.516c-4.118 0-7.99 1.603-10.9 4.516l-5.295 5.294c-.128.129-.335.148-.531.049a91.17 91.17 0 0 0-14.118-5.837c-.201-.064-.332-.225-.332-.409v-7.493c0-8.501-6.916-15.417-15.417-15.417H244.43c-8.501 0-15.417 6.916-15.417 15.417v7.493c0 .185-.131.345-.33.408a91.184 91.184 0 0 0-14.121 5.838c-.193.101-.401.08-.532-.051l-5.292-5.291a15.31 15.31 0 0 0-10.901-4.517 15.315 15.315 0 0 0-10.901 4.516l-14.045 14.045a7.49 7.49 0 0 0-1.31-.115H71.087a7.495 7.495 0 0 0-6.946 10.318l25.25 62.162c-.002.075-.004.149-.004.225v159.482c0 8.919 7.257 16.175 16.176 16.175h300.872c8.92 0 16.176-7.257 16.176-16.175V336.344c0-.075-.001-.15-.004-.225l25.25-62.162a7.491 7.491 0 0 0-.723-7.008zM82.226 278.633h83.148c.12 2.015.638 3.984 1.524 5.8l.006.013a14.861 14.861 0 0 0 .734 1.326l.059.094.134.21.06.09a12.701 12.701 0 0 0 .395.569 11.848 11.848 0 0 0 .2.268l.148.191.076.096.147.181.088.106.142.166.104.119.114.127.133.146.092.098c.054.058.11.116.166.173l.084.086.088.09 1.099 1.097.288.288 2.797 6.768-.072.152-.188.396-.165.352-.175.378-.106.232a43.756 43.756 0 0 0-.35.776 122.562 122.562 0 0 0-.323.733l-.197.456-.091.212-.239.565-.086.207c-.082.196-.163.393-.243.589l-.054.133a108.203 108.203 0 0 0-.513 1.294l-.073.188a64.31 64.31 0 0 0-.214.561l-.067.179-.197.53-.064.175c-.073.2-.146.399-.217.6l-.069.193-.207.587-.041.119-.202.59-.051.15c-.071.211-.142.423-.211.635l-.047.144-.217.671c-.064.201-.225.332-.409.332h-7.494c-8.501 0-15.417 6.916-15.417 15.417v4.574h-43.431l-20.396-50.222zm224.9 218.374H105.565c-.652 0-1.182-.53-1.182-1.181V343.84h202.744v153.167zm-92.443-168.16c3.551-19.861 20.951-34.984 41.818-34.984 20.866 0 38.266 15.123 41.818 34.984h-83.636zm41.818-49.977c-29.151 0-53.302 21.815-56.987 49.977h-38.469v-4.574c0-.233.19-.424.424-.424h7.493c6.737 0 12.642-4.331 14.696-10.778a74.691 74.691 0 0 1 .974-2.861l.119-.327a75.879 75.879 0 0 1 3.808-8.658l.056-.111c2.997-5.979 1.86-13.128-2.856-17.842l-2.795-2.796-.054-.056-2.443-2.442-.002-.002c-.164-.164-.112-.374-.092-.434l.022-.069a.385.385 0 0 1 .073-.092l17.07-17.07c.033-.034.124-.125.299-.125s.265.09.3.125l5.291 5.29c4.761 4.762 11.998 5.877 18.01 2.774a76.255 76.255 0 0 1 11.794-4.875c6.445-2.053 10.776-7.958 10.776-14.695v-7.494c0-.233.19-.424.424-.424h24.141c.233 0 .424.19.424.424v7.494c0 6.737 4.331 12.642 10.778 14.696a76.091 76.091 0 0 1 11.79 4.874c6.012 3.103 13.25 1.988 18.009-2.772l5.294-5.293c.034-.034.124-.124.299-.124s.266.091.299.125l15.086 15.086-18.731 45.327c-6.825-24.125-29.041-41.854-55.32-41.854zM407.62 495.826c0 .652-.531 1.182-1.183 1.182h-84.318V343.84h85.501v151.986zm1.761-166.979h-84.697l20.751-50.215h84.344l-20.398 50.215z" />
      <path d="M77.584 66.969a7.496 7.496 0 0 0-7.497 7.497c0 23.424 19.056 42.48 42.48 42.48h7.996c21.259 0 40.796-11.621 51.058-29.986h33.652c4.141 0 7.497-3.355 7.497-7.497s-3.355-7.497-7.497-7.497h-38.259a7.5 7.5 0 0 0-6.83 4.405c-7.033 15.54-22.586 25.581-39.622 25.581h-7.996c-12.558 0-23.177-8.466-26.449-19.991h30.447a7.497 7.497 0 0 0 5.818-2.77L135.378 63.2a7.5 7.5 0 0 0 0-9.455l-12.994-15.993a7.498 7.498 0 0 0-5.818-2.77H86.119c3.27-11.525 13.89-19.991 26.449-19.991h7.996c18.391 0 34.867 11.649 40.996 28.987a7.498 7.498 0 0 0 7.068 4.998h173.747a7.497 7.497 0 0 0 7.068-4.998c6.129-17.338 22.603-28.987 40.996-28.987h7.996c12.558 0 23.177 8.466 26.449 19.991h-30.447a7.497 7.497 0 0 0-5.818 2.77l-12.994 15.993a7.5 7.5 0 0 0 0 9.455l12.994 15.993a7.498 7.498 0 0 0 5.818 2.77h30.447c-3.271 11.525-13.89 19.991-26.449 19.991h-7.996c-17.036 0-32.589-10.041-39.622-25.581a7.497 7.497 0 0 0-6.83-4.405H235.261c-4.141 0-7.497 3.355-7.497 7.497s3.355 7.497 7.497 7.497h104.12c10.262 18.365 29.799 29.986 51.058 29.986h7.996c23.424 0 42.48-19.056 42.48-42.48a7.496 7.496 0 0 0-7.497-7.497h-35.415l-6.903-8.496 6.903-8.496h35.415a7.495 7.495 0 0 0 7.497-7.496c0-23.424-19.056-42.48-42.48-42.48h-7.996c-22.921 0-43.629 13.454-53.1 33.984H173.664C164.193 13.454 143.485 0 120.564 0h-7.996c-23.424 0-42.48 19.056-42.48 42.48a7.495 7.495 0 0 0 7.497 7.496H113l6.903 8.496L113 66.968H77.584z" />
      <path d="M263.997 112.448a7.496 7.496 0 0 0-7.497-7.497 7.496 7.496 0 0 0-7.497 7.497v22.989a7.496 7.496 0 0 0 7.497 7.497 7.496 7.496 0 0 0 7.497-7.497v-22.989z" />
      <path d="M256.501 163.924a7.496 7.496 0 0 0-7.497 7.497v22.989a7.496 7.496 0 0 0 7.497 7.497 7.496 7.496 0 0 0 7.497-7.497v-22.99a7.496 7.496 0 0 0-7.497-7.496z" />
    </g>
  </svg>