<svg
    version="1.1"
    xmlns="http://www.w3.org/2000/svg"
    viewBox="0 0 512 512"
    height="100%"
    width="100%"
  >
    <g>
      <path d="M234.976 385.715a5.653 5.653 0 0 1-5.646-5.646c0-4.143-3.357-7.5-7.5-7.5s-7.5 3.357-7.5 7.5c0 8.737 5.463 16.205 13.146 19.215v3.216a7.5 7.5 0 0 0 7.499 7.501 7.5 7.5 0 0 0 7.501-7.499v-3.217c7.683-3.01 13.147-10.478 13.147-19.216 0-14.462-11.776-19.988-17.437-22.644-6.914-3.244-8.808-5.192-8.808-9.063 0-3.113 2.533-5.646 5.646-5.646s5.646 2.533 5.646 5.646c0 4.143 3.357 7.5 7.5 7.5s7.5-3.357 7.5-7.5c0-8.737-5.463-16.205-13.146-19.215v-3.215a7.5 7.5 0 0 0-7.499-7.501 7.5 7.5 0 0 0-7.501 7.499v3.217c-7.683 3.01-13.147 10.479-13.147 19.216 0 14.462 11.776 19.988 17.437 22.644 6.914 3.244 8.808 5.192 8.808 9.063a5.652 5.652 0 0 1-5.646 5.645z" />
      <path d="M235 258.43c-58.33 0-105.785 47.455-105.785 105.785S176.67 470 235 470s105.785-47.455 105.785-105.785S293.33 258.43 235 258.43zM235 455c-50.06 0-90.785-40.726-90.785-90.785S184.94 273.43 235 273.43s90.785 40.726 90.785 90.785S285.06 455 235 455z" />
      <path d="M235 288.43c-17.287 0-34.207 6-47.642 16.896-13.229 10.729-22.563 25.731-26.279 42.242a7.5 7.5 0 0 0 14.633 3.295C181.9 323.379 206.834 303.43 235 303.43c33.517 0 60.785 27.269 60.785 60.785S268.517 425 235 425c-28.167 0-53.101-19.948-59.287-47.433a7.498 7.498 0 0 0-8.965-5.669 7.5 7.5 0 0 0-5.67 8.964c3.718 16.512 13.051 31.514 26.28 42.242C200.793 434 217.713 440 235 440c41.788 0 75.785-33.997 75.785-75.785S276.788 288.43 235 288.43z" />
      <path d="M433.453 0H36.547a7.499 7.499 0 0 0-7.5 7.5v20c0 7.75 4.556 17.256 10.597 22.11l112.361 90.312c4.652 3.74 8.89 12.582 8.89 18.552v77.456c0 4.143 3.357 7.5 7.5 7.5h133.211c4.143 0 7.5-3.357 7.5-7.5v-77.456c0-5.97 4.237-14.812 8.89-18.552l112.36-90.312c6.041-4.854 10.597-14.36 10.597-22.11v-20c0-4.143-3.357-7.5-7.5-7.5zm-7.5 27.5c0 3.232-2.474 8.394-4.993 10.419L308.598 128.23c-8.262 6.641-14.492 19.643-14.492 30.243v69.956H175.895v-69.956c0-10.601-6.23-23.603-14.493-30.243L49.04 37.919c-2.52-2.025-4.993-7.187-4.993-10.419V15h381.906v12.5z" />
      <path d="M144.435 45h241.131c4.143 0 7.5-3.357 7.5-7.5s-3.357-7.5-7.5-7.5H144.435c-4.143 0-7.5 3.357-7.5 7.5s3.357 7.5 7.5 7.5z" />
      <path d="M84.435 45h30c4.143 0 7.5-3.357 7.5-7.5s-3.357-7.5-7.5-7.5h-30c-4.143 0-7.5 3.357-7.5 7.5s3.357 7.5 7.5 7.5z" />
      <path d="M273.046 138.775h-76.092c-4.143 0-7.5 3.357-7.5 7.5s3.357 7.5 7.5 7.5h76.092c4.143 0 7.5-3.357 7.5-7.5s-3.358-7.5-7.5-7.5z" />
    </g>
  </svg>