<svg
    version="1.1"
    xmlns="http://www.w3.org/2000/svg"
    viewBox="0 0 512 512"
    height="100%"
    width="100%"
  >
    <g>
      <path d="M199.887 152.309h-8.016a7.5 7.5 0 1 0 0 15h8.016a7.5 7.5 0 1 0 0-15zm0 0" />
      <path d="M191.871 344.691a7.5 7.5 0 1 0 0 15h8.016a7.5 7.5 0 1 0 0-15zm0 0" />
      <path d="M199.887 248.5h-8.016c-4.14 0-7.5 3.36-7.5 7.5s3.36 7.5 7.5 7.5h8.016c4.14 0 7.5-3.36 7.5-7.5s-3.36-7.5-7.5-7.5zm0 0" />
      <path d="M320.129 248.5h-88.176a7.5 7.5 0 1 0 0 15h88.176c4.14 0 7.5-3.36 7.5-7.5s-3.36-7.5-7.5-7.5zm0 0" />
      <path d="M327.629 159.809a7.5 7.5 0 0 0-7.5-7.5h-88.176a7.497 7.497 0 0 0-7.5 7.5 7.5 7.5 0 0 0 7.5 7.5h88.176c4.14 0 7.5-3.36 7.5-7.5zm0 0" />
      <path d="M224.453 352.191c0 4.145 3.356 7.5 7.5 7.5h88.176a7.5 7.5 0 1 0 0-15h-88.176a7.5 7.5 0 0 0-7.5 7.5zm0 0" />
      <path d="M464.418 208.418c-23.684 0-43.375 17.398-46.984 40.082H359.69v-8.531c0-12.977-10.554-23.531-23.53-23.531H263.5V199.37h72.66c12.977 0 23.531-10.555 23.531-23.531v-32.063c0-12.976-10.554-23.535-23.53-23.535H263.5V94.566c22.684-3.609 40.082-23.3 40.082-46.984C303.582 21.344 282.234 0 256 0s-47.582 21.344-47.582 47.582c0 23.684 17.398 43.375 40.082 46.984v25.676h-72.66c-12.977 0-23.531 10.559-23.531 23.531v32.067c0 12.976 10.554 23.531 23.53 23.531H248.5v17.063h-72.66c-12.977 0-23.531 10.558-23.531 23.535v8.531H94.566c-3.609-22.684-23.3-40.082-46.984-40.082C21.344 208.418 0 229.766 0 256s21.344 47.582 47.582 47.582c23.684 0 43.375-17.398 46.984-40.082h57.743v8.531c0 12.977 10.554 23.531 23.53 23.531H248.5v17.067h-72.66c-12.977 0-23.531 10.555-23.531 23.531v32.063c0 12.976 10.554 23.535 23.53 23.535H248.5v25.676c-22.684 3.609-40.082 23.3-40.082 46.984C208.418 490.656 229.766 512 256 512s47.582-21.344 47.582-47.582c0-23.684-17.398-43.375-40.082-46.984v-25.676h72.66c12.977 0 23.531-10.559 23.531-23.531V336.16c0-12.976-10.554-23.531-23.53-23.531h-8.016c-4.141 0-7.5 3.36-7.5 7.5s3.359 7.5 7.5 7.5h8.015c4.707 0 8.531 3.828 8.531 8.531v32.067c0 4.703-3.828 8.53-8.53 8.53H175.84c-4.707 0-8.531-3.827-8.531-8.53V336.16c0-4.703 3.828-8.531 8.53-8.531h120.243c4.14 0 7.5-3.36 7.5-7.5s-3.36-7.5-7.5-7.5H263.5v-17.063h72.66c12.977 0 23.531-10.558 23.531-23.535V263.5h57.743c3.609 22.684 23.3 40.082 46.984 40.082C490.656 303.582 512 282.234 512 256s-21.344-47.582-47.582-47.582zm-241-160.836C223.418 29.617 238.035 15 256 15s32.582 14.617 32.582 32.582S273.965 80.16 256 80.16s-32.582-14.613-32.582-32.578zm-56.11 128.258v-32.067c0-4.703 3.829-8.53 8.532-8.53h160.32c4.707 0 8.531 3.827 8.531 8.53v32.067c0 4.703-3.828 8.531-8.53 8.531H175.84c-4.707 0-8.531-3.828-8.531-8.531zM47.583 288.582C29.617 288.582 15 273.965 15 256s14.617-32.582 32.582-32.582S80.16 238.035 80.16 256s-14.613 32.582-32.578 32.582zm241 175.836C288.582 482.387 273.965 497 256 497s-32.582-14.613-32.582-32.582c0-17.965 14.617-32.578 32.582-32.578s32.582 14.613 32.582 32.578zm56.11-192.387c0 4.707-3.829 8.531-8.532 8.531H175.84c-4.707 0-8.531-3.828-8.531-8.53v-32.063c0-4.707 3.828-8.531 8.53-8.531H336.16c4.707 0 8.531 3.828 8.531 8.53zm119.726 16.551c-17.965 0-32.578-14.617-32.578-32.582s14.613-32.582 32.578-32.582C482.383 223.418 497 238.035 497 256s-14.617 32.582-32.582 32.582zm0 0" />
      <path d="M454.55 319.95c-3.894-1.407-8.195.605-9.605 4.495-7.535 20.797-18.386 40.059-32.28 57.328-8.587-3.68-18.93-2.039-25.93 4.961s-8.641 17.344-4.958 25.934c-17.277 13.89-36.543 24.742-57.328 32.277a7.496 7.496 0 0 0-4.496 9.606 7.501 7.501 0 0 0 9.606 4.496c22.601-8.192 43.52-20.031 62.246-35.207a23.565 23.565 0 0 0 11.57 3.055c6.027 0 12.055-2.293 16.64-6.88 7.63-7.632 8.891-19.23 3.833-28.203 15.175-18.722 27.007-39.644 35.203-62.253a7.51 7.51 0 0 0-4.5-9.61zm-45.144 89.456c-3.324 3.328-8.738 3.328-12.066 0-3.324-3.324-3.324-8.738 0-12.062 3.328-3.328 8.742-3.328 12.066 0 3.328 3.324 3.328 8.738 0 12.062zm0 0" />
      <path d="M187.555 444.945c-20.797-7.535-40.059-18.386-57.328-32.28 3.68-8.587 2.039-18.93-4.961-25.93s-17.34-8.641-25.93-4.962c-13.89-17.277-24.75-36.543-32.281-57.328a7.5 7.5 0 1 0-14.102 5.114c8.188 22.593 20.031 43.515 35.207 62.242-5.066 8.972-3.808 20.582 3.824 28.215 4.59 4.586 10.618 6.879 16.641 6.879 4 0 7.988-1.032 11.563-3.051 18.726 15.176 39.648 27.011 62.253 35.203a7.502 7.502 0 0 0 9.61-4.496 7.502 7.502 0 0 0-4.496-9.606zm-84.961-35.539c-3.328-3.324-3.328-8.738 0-12.066 3.324-3.324 8.738-3.324 12.062 0 3.328 3.328 3.328 8.742 0 12.066-3.324 3.328-8.738 3.328-12.062 0zm0 0" />
      <path d="M57.45 192.05a7.501 7.501 0 0 0 9.605-4.496c7.543-20.808 18.394-40.058 32.285-57.324a23.625 23.625 0 0 0 9.285 1.918c6.027 0 12.055-2.293 16.64-6.882 7-6.996 8.641-17.336 4.965-25.926 17.266-13.89 36.516-24.742 57.325-32.281a7.505 7.505 0 0 0 4.496-9.61 7.507 7.507 0 0 0-9.61-4.496c-22.62 8.2-43.527 20.035-62.246 35.207-8.972-5.066-20.578-3.805-28.21 3.828-7.63 7.633-8.891 19.239-3.825 28.207-15.172 18.72-27.008 39.63-35.207 62.25a7.502 7.502 0 0 0 4.496 9.606zm45.144-89.456c3.324-3.328 8.738-3.328 12.062 0 3.328 3.324 3.328 8.738 0 12.062-3.324 3.328-8.738 3.328-12.062 0-3.328-3.324-3.328-8.738 0-12.062zm0 0" />
      <path d="M324.445 67.055c20.797 7.535 40.059 18.386 57.328 32.277-3.68 8.59-2.039 18.934 4.961 25.934 4.59 4.586 10.614 6.879 16.641 6.879a23.63 23.63 0 0 0 9.29-1.918c13.89 17.27 24.741 36.527 32.28 57.324a7.505 7.505 0 0 0 7.051 4.949c.848 0 1.711-.145 2.555-.453a7.496 7.496 0 0 0 4.496-9.606c-8.192-22.613-20.024-43.53-35.2-62.254 5.06-8.972 3.798-20.574-3.831-28.203-7.633-7.629-19.235-8.89-28.207-3.828-18.723-15.176-39.645-27.011-62.25-35.203a7.5 7.5 0 0 0-9.606 4.496 7.497 7.497 0 0 0 4.492 9.606zm84.961 35.539c3.328 3.324 3.328 8.738 0 12.062-3.324 3.328-8.738 3.328-12.062 0-3.328-3.324-3.328-8.738 0-12.062 3.324-3.328 8.738-3.328 12.062 0zm0 0" />
    </g>
  </svg>