<svg
    version="1.1"
    xmlns="http://www.w3.org/2000/svg"
    viewBox="0 0 512 512"
    height="100%"
    width="100%"
  >
    <g fill="#111111">
      <path d="M234.975 488.972h43.053c10.49 0 19.023-8.533 19.023-19.023s-8.533-19.023-19.023-19.023h-43.053c-10.49 0-19.023 8.533-19.023 19.023-.001 10.489 8.533 19.023 19.023 19.023zm0-23.028h43.053a4.009 4.009 0 0 1 4.005 4.005 4.009 4.009 0 0 1-4.005 4.005h-43.053a4.009 4.009 0 0 1-4.005-4.005 4.009 4.009 0 0 1 4.005-4.005z" />
      <path d="M211.446 210.631h60.074a7.51 7.51 0 0 0 0-15.018h-60.074a7.51 7.51 0 0 0 0 15.018z" />
      <path d="M290.543 210.631h14.017a7.51 7.51 0 0 0 0-15.018h-14.017c-4.148 0-7.509 3.362-7.509 7.509s3.361 7.509 7.509 7.509z" />
      <path d="M476.347 0h-67.236c-10.998 0-19.947 8.949-19.947 19.947V63.9c0 10.999 8.949 19.947 19.947 19.947h67.236c10.998 0 19.947-8.949 19.947-19.947V19.947C496.295 8.949 487.346 0 476.347 0zm4.929 63.901a4.934 4.934 0 0 1-4.929 4.929h-67.236a4.934 4.934 0 0 1-4.929-4.929V19.947a4.934 4.934 0 0 1 4.929-4.929h67.236a4.934 4.934 0 0 1 4.929 4.929v43.954z" />
      <path d="M442.729 97.492a7.508 7.508 0 0 0-7.509 7.509v32.039a7.508 7.508 0 0 0 7.509 7.509 7.508 7.508 0 0 0 7.509-7.509v-32.039a7.51 7.51 0 0 0-7.509-7.509z" />
      <path d="M442.729 156.565a7.508 7.508 0 0 0-7.509 7.509v9.011a7.508 7.508 0 0 0 7.509 7.509 7.508 7.508 0 0 0 7.509-7.509v-9.011a7.51 7.51 0 0 0-7.509-7.509z" />
      <path d="M223.883 119.893h67.236c10.998 0 19.947-8.949 19.947-19.947V55.992c0-10.999-8.949-19.947-19.947-19.947h-67.236c-10.998 0-19.947 8.949-19.947 19.947v43.953c.001 11 8.949 19.948 19.947 19.948zm-4.928-63.901a4.934 4.934 0 0 1 4.929-4.929h67.236a4.934 4.934 0 0 1 4.929 4.929v43.953a4.934 4.934 0 0 1-4.929 4.929h-67.236a4.935 4.935 0 0 1-4.929-4.929V55.992z" />
      <path d="M249.993 138.042v16.02a7.51 7.51 0 0 0 15.018 0v-16.02a7.508 7.508 0 0 0-7.509-7.509 7.508 7.508 0 0 0-7.509 7.509z" />
      <path d="M289.041 316.21v-43.953c0-10.999-8.949-19.947-19.947-19.947h-67.236c-10.998 0-19.947 8.949-19.947 19.947v43.953c0 10.999 8.949 19.947 19.947 19.947h67.236c10.998.001 19.947-8.947 19.947-19.947zm-92.113 0v-43.953a4.934 4.934 0 0 1 4.929-4.929h67.236a4.934 4.934 0 0 1 4.929 4.929v43.953a4.934 4.934 0 0 1-4.929 4.929h-67.236a4.934 4.934 0 0 1-4.929-4.929z" />
      <path d="M385.236 316.387h-26.109V292.23a7.508 7.508 0 0 0-7.509-7.509 7.508 7.508 0 0 0-7.509 7.509v24.157H318c-10.998 0-19.947 8.949-19.947 19.947v43.953c0 10.999 8.949 19.947 19.947 19.947h26.109v27.842H170.896V232.798h173.212v29.396a7.508 7.508 0 0 0 7.509 7.509 7.508 7.508 0 0 0 7.509-7.509v-59.51c0-16.597-13.503-30.1-30.1-30.1H185.978c-16.597 0-30.1 13.503-30.1 30.1V481.9c0 16.597 13.503 30.1 30.1 30.1h143.05c16.596 0 30.1-13.503 30.1-30.1v-81.664h26.109c10.998 0 19.947-8.949 19.947-19.947v-43.953c-.001-11-8.95-19.949-19.948-19.949zM185.978 187.603h143.05c8.316 0 15.081 6.765 15.081 15.081v15.096H170.897v-15.096h-.001c0-8.316 6.766-15.081 15.082-15.081zM344.108 481.9c0 8.316-6.765 15.081-15.081 15.081H185.978c-8.316 0-15.081-6.765-15.081-15.081v-38.804h173.212V481.9zm46.057-101.611a4.934 4.934 0 0 1-4.929 4.929H318a4.934 4.934 0 0 1-4.929-4.929v-43.953a4.934 4.934 0 0 1 4.929-4.929h67.236a4.934 4.934 0 0 1 4.929 4.929v43.953z" />
      <path d="M242.985 350.302a7.51 7.51 0 0 0-15.018 0v23.028a7.51 7.51 0 0 0 15.018 0v-23.028z" />
      <path d="M235.475 388.849a7.51 7.51 0 0 0-7.509 7.509v16.02a7.51 7.51 0 0 0 15.018 0v-16.02a7.508 7.508 0 0 0-7.509-7.509z" />
      <path d="M442.729 195.613a7.508 7.508 0 0 0-7.509 7.509v118.145a7.508 7.508 0 0 0 7.509 7.509 7.508 7.508 0 0 0 7.509-7.509V203.122a7.51 7.51 0 0 0-7.509-7.509z" />
      <path d="M102.89 127.156H35.653c-10.998 0-19.947 8.949-19.947 19.947v43.953c0 11 8.949 19.947 19.947 19.947h67.236c10.998 0 19.947-8.949 19.947-19.947v-43.953c.001-10.998-8.948-19.947-19.946-19.947zm0 68.83H35.653a4.935 4.935 0 0 1-4.929-4.929v-43.953a4.934 4.934 0 0 1 4.929-4.929h67.236a4.935 4.935 0 0 1 4.929 4.929v43.953h.001a4.934 4.934 0 0 1-4.929 4.929z" />
      <path d="M69.272 224.648a7.51 7.51 0 0 0-7.509 7.509v32.039a7.51 7.51 0 0 0 15.018 0v-32.039a7.51 7.51 0 0 0-7.509-7.509z" />
      <path d="M69.272 283.72a7.51 7.51 0 0 0-7.509 7.509v9.011a7.51 7.51 0 0 0 15.018 0v-9.011a7.51 7.51 0 0 0-7.509-7.509z" />
      <path d="M69.272 322.768a7.51 7.51 0 0 0-7.509 7.509v118.145a7.51 7.51 0 0 0 15.018 0V330.277a7.51 7.51 0 0 0-7.509-7.509z" />
    </g>
  </svg>