<svg
    version="1.1"
    xmlns="http://www.w3.org/2000/svg"
    viewBox="0 0 512 512"
    height="100%"
    width="100%"
  >
    <g>
      <path d="M204.254 128.271H18.428C8.267 128.271 0 136.538 0 146.698v269.57c0 10.16 8.267 18.427 18.428 18.427h185.826c10.161 0 18.428-8.267 18.428-18.427v-269.57c-.001-10.16-8.268-18.427-18.428-18.427zm3.429 287.997a3.433 3.433 0 0 1-3.43 3.429H18.428a3.433 3.433 0 0 1-3.43-3.429v-269.57a3.433 3.433 0 0 1 3.43-3.429h185.826a3.433 3.433 0 0 1 3.43 3.429v269.57z" />
      <path d="M367.312 181.996H259.186c-10.161 0-18.428 8.267-18.428 18.428v213.951c0 10.161 8.267 18.428 18.428 18.428h108.127c10.161 0 18.428-8.267 18.428-18.428V200.423c-.002-10.161-8.269-18.427-18.429-18.427zm3.43 232.379a3.435 3.435 0 0 1-3.431 3.43H259.186a3.434 3.434 0 0 1-3.43-3.43V200.423a3.434 3.434 0 0 1 3.43-3.43h108.127a3.434 3.434 0 0 1 3.43 3.43v213.952z" />
      <path d="M493.573 253.987h-75.408c-10.161 0-18.428 8.267-18.428 18.428v144.149c0 10.161 8.267 18.428 18.428 18.428h75.408c10.161 0 18.428-8.267 18.428-18.428v-144.15c-.001-10.161-8.267-18.427-18.428-18.427zm3.429 162.576a3.434 3.434 0 0 1-3.43 3.43h-75.408a3.434 3.434 0 0 1-3.43-3.43v-144.15a3.434 3.434 0 0 1 3.43-3.43h75.408a3.434 3.434 0 0 1 3.43 3.43v144.15z" />
      <path d="M154.269 123.004a7.5 7.5 0 0 0 7.499-7.499V95.006a3.003 3.003 0 0 1 2.999-2.999h105.988a3.003 3.003 0 0 1 2.999 2.999v44.389l-8.196-8.196a7.5 7.5 0 0 0-10.605 10.606l20.997 20.997.137.134a7.476 7.476 0 0 0 5.165 2.063h.001l.07-.001.11-.001.109-.004c.023-.001.047-.001.07-.003l.07-.004.114-.007.016-.001.165-.014.007-.001a7.47 7.47 0 0 0 3.944-1.6l.09-.073.049-.041.102-.087.085-.075.044-.04.099-.092.025-.023.124-.121.008-.007 19.997-19.997a7.5 7.5 0 1 0-10.605-10.606l-7.196 7.196V95.006c0-9.924-8.073-17.997-17.997-17.997H164.767c-9.924 0-17.997 8.073-17.997 17.997v20.498a7.5 7.5 0 0 0 7.499 7.5z" />
      <path d="M336.246 173.997a7.5 7.5 0 0 0 7.499-7.499V146a3.003 3.003 0 0 1 2.999-2.999h88.991a3.003 3.003 0 0 1 2.999 2.999v70.386l-8.196-8.196a7.5 7.5 0 0 0-10.605 10.606l20.997 20.997.137.134a7.476 7.476 0 0 0 5.165 2.063h.001l.07-.001.11-.001.109-.004c.023-.001.047-.001.07-.003l.07-.004.114-.007.016-.001.165-.014.007-.001a7.47 7.47 0 0 0 3.944-1.6l.09-.073.049-.041.102-.087.085-.075.044-.04.099-.092.025-.023.124-.121.008-.007 19.997-19.997a7.5 7.5 0 1 0-10.605-10.606l-7.196 7.196v-70.385c0-9.924-8.073-17.997-17.997-17.997h-88.991c-9.924 0-17.997 8.073-17.997 17.997v20.498a7.5 7.5 0 0 0 7.501 7.496z" />
      <path d="M189.265 152H33.285a7.5 7.5 0 0 0-7.499 7.499v77.99a7.498 7.498 0 0 0 7.499 7.499h90.738a7.5 7.5 0 0 0 0-14.998H40.784v-62.992h140.982v62.992H154.02a7.5 7.5 0 0 0 0 14.998h35.245a7.5 7.5 0 0 0 7.499-7.499v-77.99a7.5 7.5 0 0 0-7.499-7.499z" />
      <path d="M189.265 356.974H33.285a7.5 7.5 0 0 0-7.499 7.499v37.995a7.5 7.5 0 0 0 7.499 7.499h155.98a7.5 7.5 0 0 0 7.499-7.499v-37.995a7.498 7.498 0 0 0-7.499-7.499zm-7.499 37.995H40.784v-22.997h140.982v22.997z" />
      <path d="M33.285 346.975h86.989a7.5 7.5 0 0 0 7.499-7.499v-77.99a7.5 7.5 0 0 0-7.499-7.499H33.285a7.5 7.5 0 0 0-7.499 7.499v77.99a7.5 7.5 0 0 0 7.499 7.499zm7.499-77.99h71.991v62.992H40.784v-62.992z" />
      <path d="M189.265 253.987h-45.994a7.5 7.5 0 0 0-7.499 7.499v77.99a7.5 7.5 0 0 0 7.499 7.499h45.994a7.5 7.5 0 0 0 7.499-7.499v-77.99a7.498 7.498 0 0 0-7.499-7.499zm-7.499 77.99H150.77v-62.992h30.996v62.992z" />
      <path d="M349.679 206.993h-72.86c-6.652 0-12.063 5.411-12.063 12.063v22.866c0 6.652 5.412 12.063 12.063 12.063h72.86c6.652 0 12.063-5.411 12.063-12.063v-22.866c0-6.652-5.412-12.063-12.063-12.063zm-2.935 31.996h-66.991v-16.998h66.991v16.998z" />
      <path d="M348.752 262.986h-71.008c-7.163 0-12.99 5.827-12.99 12.989v20.506a7.5 7.5 0 0 0 14.998 0v-18.498h66.991v116.985h-66.991v-68.491a7.5 7.5 0 0 0-14.998 0v70.5c0 7.162 5.827 12.989 12.99 12.989h71.008c7.163 0 12.99-5.827 12.99-12.989V275.975c0-7.162-5.827-12.989-12.99-12.989z" />
      <path d="M472.796 278.984h-33.133c-8.232 0-14.93 6.697-14.93 14.93v30.133c0 8.232 6.697 14.93 14.93 14.93h33.133c8.232 0 14.93-6.697 14.93-14.93v-30.133c0-8.233-6.697-14.93-14.93-14.93zm-.068 44.994h-32.996v-29.996h32.996v29.996z" />
      <path d="M472.796 350.974h-33.133c-8.232 0-14.93 6.697-14.93 14.93v29.133c0 8.232 6.697 14.93 14.93 14.93h33.133c8.232 0 14.93-6.697 14.93-14.93v-29.133c0-8.233-6.697-14.93-14.93-14.93zm-.068 43.995h-32.996v-28.996h32.996v28.996z" />
    </g>
  </svg>