<svg
    version="1.1"
    xmlns="http://www.w3.org/2000/svg"
    viewBox="0 0 512 512"
    height="100%"
    width="100%"
  >
    <g fill="#111111">
      <path d="M71.629 32.063c-12.977 0-23.531 10.558-23.531 23.535 0 12.972 10.554 23.53 23.53 23.53 12.977 0 23.532-10.558 23.532-23.53 0-12.977-10.555-23.535-23.531-23.535zm0 32.066c-4.703 0-8.531-3.828-8.531-8.531 0-4.707 3.828-8.532 8.53-8.532s8.532 3.829 8.532 8.532-3.828 8.53-8.531 8.53zm0 0" />
      <path d="M440.371 79.129c12.977 0 23.531-10.559 23.531-23.531 0-12.977-10.554-23.532-23.53-23.532-12.977 0-23.532 10.555-23.532 23.532 0 12.972 10.555 23.53 23.531 23.53zm0-32.067c4.703 0 8.531 3.829 8.531 8.536 0 4.703-3.828 8.53-8.53 8.53s-8.532-3.827-8.532-8.53c0-4.707 3.828-8.535 8.531-8.535zm0 0" />
      <path d="M71.629 400.809c-12.977 0-23.531 10.554-23.531 23.53 0 12.974 10.554 23.532 23.53 23.532 12.977 0 23.532-10.558 23.532-23.531 0-12.977-10.555-23.531-23.531-23.531zm0 32.062c-4.703 0-8.531-3.828-8.531-8.531 0-4.707 3.828-8.531 8.53-8.531s8.532 3.824 8.532 8.53c0 4.704-3.828 8.532-8.531 8.532zm0 0" />
      <path d="M440.371 368.742c-17.05 0-32.723 6-45.039 15.985l-49.578-49.582c18.64-21.118 29.973-48.829 29.973-79.145s-11.332-58.031-29.973-79.148l49.578-49.579c12.316 9.985 27.988 15.985 45.04 15.985 39.495 0 71.628-32.133 71.628-71.63S479.867 0 440.371 0s-71.629 32.133-71.629 71.629c0 17.055 6 32.726 15.985 45.039l-49.582 49.578c-21.114-18.64-48.829-29.973-79.145-29.973s-58.027 11.332-79.145 29.973l-49.582-49.578c9.989-12.313 15.985-27.984 15.985-45.04C143.258 32.134 111.125 0 71.628 0S0 32.133 0 71.629s32.133 71.629 71.629 71.629c17.05 0 32.723-6 45.039-15.985l49.578 49.582c-18.64 21.118-29.973 48.829-29.973 79.145s11.332 58.031 29.973 79.148l-49.578 49.579c-12.316-9.985-27.988-15.985-45.04-15.985C32.134 368.742 0 400.875 0 440.372S32.133 512 71.629 512s71.629-32.133 71.629-71.629c0-17.055-6-32.726-15.985-45.039l49.582-49.578c21.114 18.64 48.829 29.973 79.145 29.973s58.031-11.332 79.145-29.973l49.582 49.578c-9.985 12.313-15.985 27.984-15.985 45.04 0 39.495 32.133 71.628 71.63 71.628S512 479.867 512 440.371s-32.133-71.629-71.629-71.629zM224.688 156.055c-3.485 5-6.7 10.89-9.59 17.636-1.453 3.391-2.797 6.97-4.047 10.68h-31.375c12.187-12.976 27.629-22.855 45.012-28.316zm119.37 156.574H305.25c3.617-15.02 5.754-31.719 6.23-49.129h48.973c-1.277 18.008-7.129 34.77-16.394 49.129zm-54.25 0h-67.617c-3.699-14.047-6.152-30.66-6.68-49.129h80.973c-.523 18.469-2.976 35.082-6.675 49.129zm21.68-64.129c-.238-8.668-.886-17.219-1.941-25.512a7.5 7.5 0 0 0-8.39-6.488 7.499 7.499 0 0 0-6.493 8.387c.98 7.668 1.586 15.586 1.82 23.613h-80.972c.527-18.469 2.98-35.082 6.68-49.129h121.867c9.265 14.36 15.117 31.121 16.394 49.129zm20.836-64.129h-31.367c-3.793-11.3-8.39-20.808-13.613-28.305 17.37 5.461 32.8 15.336 44.98 28.305zm-47.285 0h-58.086c7.914-20.828 18.793-33.098 29.047-33.098 10.488 0 21.234 12.446 29.04 33.098zm-117.098 15h38.809c-3.617 15.02-5.754 31.719-6.23 49.129h-48.973c1.277-18.008 7.129-34.77 16.394-49.129zM200.52 263.5c.476 17.41 2.613 34.11 6.23 49.129h-38.805a104.017 104.017 0 0 1-16.398-49.129zm-20.844 64.129h31.375c1.25 3.71 2.594 7.289 4.047 10.68 2.89 6.746 6.105 12.636 9.59 17.636-17.383-5.46-32.825-15.34-45.012-28.316zm47.277 0h58.094c-7.914 20.828-18.793 33.098-29.047 33.098s-21.133-12.27-29.047-33.098zm69.95 10.68c1.452-3.391 2.796-6.97 4.046-10.68h31.375c-12.187 12.976-27.629 22.855-45.015 28.316 3.488-5 6.703-10.89 9.593-17.636zm118.906-215.66V111.71c0-4.707 3.828-8.531 8.53-8.531h32.063c4.707 0 8.532 3.824 8.532 8.53v10.938c-7.434 3.594-15.766 5.61-24.563 5.61s-17.129-2.016-24.562-5.61zM440.37 15C471.598 15 497 40.402 497 71.629c0 15.84-6.547 30.176-17.062 40.46v-.378c0-12.977-10.56-23.531-23.536-23.531H424.34c-12.977 0-23.531 10.554-23.531 23.53v.384c-10.52-10.29-17.067-24.625-17.067-40.465 0-31.227 25.403-56.629 56.63-56.629zM47.063 122.648v-10.937c0-4.707 3.828-8.531 8.535-8.531H87.66c4.703 0 8.531 3.824 8.531 8.53v10.938c-7.433 3.594-15.765 5.61-24.562 5.61s-17.129-2.016-24.566-5.61zm64.128-10.554v-.383c0-12.977-10.554-23.531-23.53-23.531H55.597c-12.977 0-23.532 10.554-23.532 23.53v.38C21.546 101.805 15 87.469 15 71.629 15 40.402 40.402 15 71.629 15c31.226 0 56.629 25.402 56.629 56.629 0 15.84-6.547 30.176-17.067 40.465zM47.063 491.39v-10.942c0-4.703 3.828-8.531 8.535-8.531H87.66c4.703 0 8.531 3.828 8.531 8.531v10.942C88.758 494.984 80.426 497 71.63 497s-17.129-2.016-24.566-5.61zm64.128-10.559v-.383c0-12.972-10.554-23.531-23.53-23.531H55.597c-12.977 0-23.532 10.559-23.532 23.531v.383C21.546 470.547 15 456.211 15 440.372c0-31.227 25.402-56.63 56.629-56.63 31.226 0 56.629 25.403 56.629 56.63 0 15.839-6.547 30.175-17.067 40.46zm304.618 10.559v-10.942c0-4.703 3.828-8.531 8.53-8.531h32.063c4.707 0 8.532 3.828 8.532 8.531v10.942C457.5 494.984 449.168 497 440.37 497s-17.129-2.016-24.562-5.61zm64.129-10.559v-.379c0-12.976-10.56-23.531-23.536-23.531H424.34c-12.977 0-23.531 10.555-23.531 23.531v.383c-10.52-10.29-17.067-24.625-17.067-40.465 0-31.226 25.406-56.629 56.63-56.629 31.226 0 56.628 25.403 56.628 56.63 0 15.839-6.547 30.175-17.062 40.46zm0 0" />
      <path d="M440.371 400.809c-12.976 0-23.531 10.554-23.531 23.53 0 12.974 10.555 23.532 23.531 23.532 12.977 0 23.531-10.558 23.531-23.531 0-12.977-10.554-23.531-23.53-23.531zm0 32.062c-4.707 0-8.531-3.828-8.531-8.531 0-4.707 3.828-8.531 8.531-8.531s8.531 3.824 8.531 8.53c0 4.704-3.828 8.532-8.53 8.532zm0 0" />
      <path d="M33.91 347.047a7.503 7.503 0 0 0 9.785 4.09 7.498 7.498 0 0 0 4.09-9.785 226.152 226.152 0 0 1-2.812-7.207c-1.442-3.883-5.754-5.868-9.637-4.426a7.498 7.498 0 0 0-4.43 9.636c.961 2.586 1.969 5.176 3.004 7.692zm0 0" />
      <path d="M22.059 202.328a241.322 241.322 0 0 0-2.957 15.192 7.501 7.501 0 0 0 14.808 2.386 224.36 224.36 0 0 1 2.77-14.234c.922-4.04-1.602-8.063-5.64-8.98a7.495 7.495 0 0 0-8.981 5.636zm0 0" />
      <path d="M16.152 248.293a243.8 243.8 0 0 0 .004 15.46 7.499 7.499 0 0 0 7.492 7.267c.082 0 .16-.004.243-.004a7.499 7.499 0 0 0 7.257-7.735 225.94 225.94 0 0 1-.117-7.281c0-2.398.04-4.832.114-7.23a7.497 7.497 0 0 0-7.258-7.735 7.49 7.49 0 0 0-7.735 7.258zm0 0" />
      <path d="M36.691 306.371a224.8 224.8 0 0 1-2.773-14.23c-.66-4.09-4.512-6.871-8.598-6.207a7.499 7.499 0 0 0-6.21 8.597 240.682 240.682 0 0 0 2.96 15.188 7.5 7.5 0 0 0 7.301 5.828c.555 0 1.117-.063 1.68-.192a7.503 7.503 0 0 0 5.64-8.984zm0 0" />
      <path d="M43.684 160.883a7.503 7.503 0 0 0-9.786 4.094c-1.039 2.539-2.05 5.128-3 7.687a7.506 7.506 0 0 0 7.036 10.11 7.501 7.501 0 0 0 7.03-4.899c.891-2.398 1.837-4.824 2.813-7.207a7.498 7.498 0 0 0-4.093-9.785zm0 0" />
      <path d="M341.328 464.223a214.5 214.5 0 0 1-7.207 2.812 7.506 7.506 0 0 0-4.43 9.64 7.506 7.506 0 0 0 7.036 4.895c.867 0 1.746-.148 2.605-.468a234.864 234.864 0 0 0 7.688-3 7.5 7.5 0 1 0-5.692-13.88zm0 0" />
      <path d="M263.254 480.852a223.16 223.16 0 0 1-7.23.117H256c-2.41 0-4.852-.04-7.258-.117a7.492 7.492 0 0 0-7.73 7.261 7.499 7.499 0 0 0 7.258 7.735c2.57.078 5.207.132 7.753.12 2.555 0 5.149-.042 7.707-.12a7.499 7.499 0 0 0 7.258-7.735c-.129-4.14-3.582-7.379-7.734-7.261zm0 0" />
      <path d="M306.348 475.313a225.882 225.882 0 0 1-14.23 2.773 7.499 7.499 0 0 0-6.212 8.598 7.509 7.509 0 0 0 7.395 6.308c.398 0 .8-.031 1.207-.097 5.07-.82 10.18-1.813 15.183-2.958a7.501 7.501 0 1 0-3.343-14.625zm0 0" />
      <path d="M219.883 478.086c-4.754-.77-9.543-1.7-14.235-2.774a7.51 7.51 0 0 0-8.984 5.641 7.504 7.504 0 0 0 5.64 8.985 240.66 240.66 0 0 0 15.188 2.957 7.51 7.51 0 0 0 8.602-6.21 7.499 7.499 0 0 0-6.211-8.6zm0 0" />
      <path d="M177.855 467.027c-2.41-.894-4.832-1.84-7.207-2.812a7.496 7.496 0 0 0-9.785 4.09 7.496 7.496 0 0 0 4.09 9.785c2.531 1.039 5.117 2.05 7.688 3.004.859.316 1.742.469 2.605.469a7.504 7.504 0 0 0 7.035-4.899 7.496 7.496 0 0 0-4.426-9.637zm0 0" />
      <path d="M478.113 165.004a7.503 7.503 0 0 0-9.785-4.094 7.498 7.498 0 0 0-4.094 9.785 234.8 234.8 0 0 1 2.809 7.207 7.504 7.504 0 0 0 7.035 4.899 7.502 7.502 0 0 0 7.035-10.105 252.455 252.455 0 0 0-3-7.692zm0 0" />
      <path d="M489.938 309.68c1.144-5 2.14-10.11 2.957-15.184a7.499 7.499 0 0 0-6.211-8.598 7.502 7.502 0 0 0-8.598 6.211c-.766 4.754-1.7 9.543-2.77 14.227a7.499 7.499 0 0 0 5.637 8.984 7.539 7.539 0 0 0 1.68.192 7.5 7.5 0 0 0 7.304-5.832zm0 0" />
      <path d="M475.316 205.672a225.22 225.22 0 0 1 2.774 14.226 7.5 7.5 0 0 0 14.808-2.386c-.82-5.07-1.812-10.18-2.957-15.184a7.499 7.499 0 0 0-8.98-5.64 7.504 7.504 0 0 0-5.645 8.984zm0 0" />
      <path d="M495.844 263.73c.082-2.554.125-5.156.125-7.734 0-2.57-.043-5.168-.125-7.723-.13-4.14-3.578-7.375-7.73-7.257a7.501 7.501 0 0 0-7.262 7.73 223.884 223.884 0 0 1 0 14.508c-.13 4.14 3.12 7.605 7.257 7.734.082.004.164.004.246.004a7.497 7.497 0 0 0 7.489-7.262zm0 0" />
      <path d="M468.313 351.117a7.501 7.501 0 0 0 9.785-4.094 233.793 233.793 0 0 0 3-7.687 7.504 7.504 0 0 0-4.426-9.64 7.506 7.506 0 0 0-9.64 4.429 216.71 216.71 0 0 1-2.81 7.207 7.496 7.496 0 0 0 4.09 9.785zm0 0" />
      <path d="M167.824 48.34c.95 0 1.914-.18 2.844-.563a222.928 222.928 0 0 1 7.203-2.808 7.505 7.505 0 0 0 4.434-9.64 7.506 7.506 0 0 0-9.64-4.43c-2.563.949-5.15 1.956-7.692 3a7.502 7.502 0 0 0 2.851 14.44zm0 0" />
      <path d="M292.086 33.91c4.754.766 9.543 1.695 14.23 2.77a7.497 7.497 0 0 0 8.98-5.64 7.498 7.498 0 0 0-5.64-8.985c-5-1.14-10.11-2.137-15.183-2.953a7.501 7.501 0 0 0-2.387 14.808zm0 0" />
      <path d="M203.965 36.879c.55 0 1.113-.063 1.676-.191a224.778 224.778 0 0 1 14.23-2.77 7.5 7.5 0 0 0 6.207-8.602c-.66-4.086-4.508-6.87-8.598-6.207a237.792 237.792 0 0 0-15.183 2.957 7.504 7.504 0 0 0-5.64 8.985 7.509 7.509 0 0 0 7.308 5.828zm0 0" />
      <path d="M248.48 31.152c.083 0 .16-.004.243-.004a224.79 224.79 0 0 1 7.254-.117H256c2.406 0 4.836.04 7.23.114 4.118.12 7.602-3.118 7.735-7.258.129-4.14-3.121-7.606-7.262-7.735a242.946 242.946 0 0 0-15.457.004 7.5 7.5 0 1 0 .234 14.996zm0 0" />
      <path d="M334.105 44.96a227.21 227.21 0 0 1 7.208 2.81 7.501 7.501 0 0 0 5.691-13.879 244.736 244.736 0 0 0-7.692-3 7.5 7.5 0 0 0-9.636 4.43 7.506 7.506 0 0 0 4.43 9.64zm0 0" />
    </g>
  </svg>