<svg
    version="1.1"
    xmlns="http://www.w3.org/2000/svg"
    viewBox="0 0 512 512"
    height="100%"
    width="100%"
  >
    <g>
      <path d="M466.365 262.175a7.501 7.501 0 0 0 0-9.35c-.958-1.201-23.877-29.751-61.164-58.686-25.007-19.406-50.48-34.212-75.711-44.14h86.431c3 7.605 10.421 13 19.079 13 11.304 0 20.5-9.196 20.5-20.5S446.305 122 435 122c-8.658 0-16.079 5.395-19.079 13h-61.689c24.253-16.13 40.268-43.708 40.268-74.956V41h1.237c6.486 0 11.763-5.277 11.763-11.763V11.763C407.5 5.277 402.224 0 395.737 0h-17.475C371.776 0 366.5 5.277 366.5 11.763v17.475c0 6.486 5.276 11.763 11.763 11.763h1.237v19.044c0 41.331-33.625 74.956-74.955 74.956h-97.09c-41.33 0-74.955-33.625-74.955-74.956V41h1.237c6.486 0 11.763-5.277 11.763-11.763V11.763C145.5 5.277 140.224 0 133.737 0h-17.475C109.776 0 104.5 5.277 104.5 11.763v17.475c0 6.486 5.276 11.763 11.763 11.763h1.237v19.044c0 31.248 16.015 58.825 40.268 74.956H97.079c-3-7.605-10.421-13-19.079-13-11.304 0-20.5 9.196-20.5 20.5S66.696 163 78 163c8.658 0 16.079-5.395 19.079-13h85.431c-25.231 9.928-50.704 24.734-75.711 44.14-37.287 28.935-60.206 57.484-61.164 58.686a7.501 7.501 0 0 0 0 9.35c.958 1.201 23.877 29.751 61.164 58.686 25.007 19.406 50.48 34.212 75.711 44.14H97.079c-3-7.605-10.421-13-19.079-13-11.304 0-20.5 9.196-20.5 20.5S66.696 393 78 393c8.658 0 16.079-5.395 19.079-13h60.689c-24.253 16.13-40.268 43.708-40.268 74.956V471h-1.237c-6.486 0-11.763 5.277-11.763 11.763v17.475c0 6.486 5.276 11.763 11.763 11.763h17.475c6.486 0 11.763-5.277 11.763-11.763v-17.475c0-6.486-5.276-11.763-11.763-11.763H132.5v-16.044c0-41.331 33.625-74.956 74.955-74.956h97.09c41.33 0 74.955 33.625 74.955 74.956V471h-1.237c-6.486 0-11.763 5.277-11.763 11.763v17.475c0 6.486 5.276 11.763 11.763 11.763h17.475c6.486 0 11.763-5.277 11.763-11.763v-17.475c0-6.486-5.276-11.763-11.763-11.763H394.5v-16.044c0-31.248-16.015-58.825-40.268-74.956h61.689c3 7.605 10.421 13 19.079 13 11.304 0 20.5-9.196 20.5-20.5S446.304 352 435 352c-8.658 0-16.079 5.395-19.079 13H329.49c25.231-9.928 50.704-24.734 75.711-44.14 37.288-28.934 60.207-57.484 61.164-58.685zM435 137c3.033 0 5.5 2.467 5.5 5.5s-2.467 5.5-5.5 5.5-5.5-2.467-5.5-5.5 2.468-5.5 5.5-5.5zM381.5 15h11v11h-11V15zm-251 11h-11V15h11v11zM78 148c-3.033 0-5.5-2.467-5.5-5.5s2.467-5.5 5.5-5.5 5.5 2.467 5.5 5.5-2.466 5.5-5.5 5.5zm0 230a5.506 5.506 0 0 1-5.5-5.5c0-3.033 2.467-5.5 5.5-5.5s5.5 2.467 5.5 5.5-2.466 5.5-5.5 5.5zm52.5 119h-11v-11h11v11zm251-11h11v11h-11v-11zM435 367c3.033 0 5.5 2.467 5.5 5.5s-2.467 5.5-5.5 5.5a5.506 5.506 0 0 1-5.5-5.5c0-3.033 2.468-5.5 5.5-5.5zm-318.724-57.773c-27.298-21.141-46.974-42.53-54.964-51.727 7.991-9.198 27.666-30.586 54.964-51.727 13.964-10.815 31.209-22.515 50.743-32.383-20.767 21.958-33.518 51.573-33.518 84.11s12.751 62.152 33.518 84.11c-19.534-9.868-36.779-21.568-50.743-32.383zm228.706 32.383c20.767-21.958 33.518-51.573 33.518-84.11 0-6.281-.482-12.6-1.433-18.779a7.5 7.5 0 0 0-8.554-6.272 7.5 7.5 0 0 0-6.272 8.553A108.84 108.84 0 0 1 363.5 257.5c0 56.076-43.159 102.261-98.003 107.084a159.25 159.25 0 0 1-9.497.286c-3.183 0-6.35-.098-9.497-.286-54.844-4.823-98.003-51.008-98.003-107.084s43.159-102.261 98.003-107.084a159.25 159.25 0 0 1 9.497-.286c3.133 0 6.249.095 9.346.277 38.645 3.375 72.889 27.494 88.884 63.367a7.5 7.5 0 1 0 13.699-6.108 122.296 122.296 0 0 0-22.813-34.208c19.478 9.853 36.676 21.524 50.608 32.314 27.298 21.141 46.973 42.529 54.964 51.727-7.991 9.198-27.666 30.586-54.964 51.727-13.964 10.816-31.208 22.516-50.742 32.384z" />
      <path d="M264.016 230h-16.031c-10.744 0-19.484 8.741-19.484 19.484v16.031c0 10.744 8.74 19.484 19.484 19.484h16.031c10.744 0 19.484-8.741 19.484-19.484v-16.031c0-10.743-8.74-19.484-19.484-19.484zm4.484 35.516a4.49 4.49 0 0 1-4.484 4.484h-16.031a4.49 4.49 0 0 1-4.484-4.484v-16.031a4.49 4.49 0 0 1 4.484-4.484h16.031a4.49 4.49 0 0 1 4.484 4.484v16.031z" />
      <path d="M301.409 170.087c-15.586-1.126-29.498 8.666-34.21 22.872A65.75 65.75 0 0 0 256 192c-36.117 0-65.5 29.383-65.5 65.5S219.883 323 256 323s65.5-29.383 65.5-65.5a65.517 65.517 0 0 0-5.12-25.376c8.946-5.449 15.223-14.994 16.033-26.214.644-8.925-2.227-17.566-8.082-24.333-5.855-6.766-13.995-10.847-22.922-11.49zM256 308c-27.846 0-50.5-22.654-50.5-50.5S228.154 207 256 207c3.301 0 6.575.319 9.787.95.847 6.422 3.546 12.462 7.882 17.473 5.607 6.478 13.308 10.494 21.788 11.389l.066.007.292.029.214.019.163.015a25.643 25.643 0 0 0 .582.043l.127.009.235.014.079.005.239.012.076.004.251.01.053.002.272.009h.021a33.462 33.462 0 0 0 3.959-.127 50.507 50.507 0 0 1 4.414 20.638C306.5 285.346 283.846 308 256 308zm61.453-103.169c-.733 10.162-9.578 17.83-19.747 17.124l-.035-.002h-.001l-.233-.018-.012-.001c-9.89-.846-17.445-9.524-16.887-19.462.005-.093.008-.186.01-.278l.001-.023c.701-9.724 8.838-17.17 18.439-17.17.444 0 .894.016 1.344.048a18.375 18.375 0 0 1 12.657 6.345 18.37 18.37 0 0 1 4.464 13.437z" />
    </g>
  </svg>