<svg xmlns="http://www.w3.org/2000/svg" width="126" height="126" viewBox="0 0 126 126" id="IconOne" fill="#369BA1">
<g>
<g data-name="Layer 2">
<g data-name="Layer 1"><circle cx="12.15" cy="22.68" r="1.68"></circle><circle cx="15.51" cy="17.64" r="1.68"></circle><circle cx="20.55" cy="14.28" r="1.68"></circle><circle cx="27.27" cy="12.6" r="1.68"></circle><circle cx="33.99" cy="14.28" r="1.68"></circle><circle cx="39.03" cy="17.64" r="1.68"></circle><circle cx="42.39" cy="22.68" r="1.68"></circle><circle cx="83.55" cy="51.24" r="2.52"></circle><circle cx="91.95" cy="57.12" r="2.52"></circle><circle cx="86.91" cy="78.96" r="2.52"></circle><circle cx="91.95" cy="99.12" r="2.52"></circle><circle cx="83.55" cy="105.84" r="2.52"></circle><circle cx="76.83" cy="78.96" r="2.52"></circle><circle cx="66.75" cy="78.96" r="2.52"></circle><path d="M125.78 64.14a31.24 31.24 0 0 0-6.2-19.94c-1.59-2.14-1.17-3.18.4-5 9.65-11.29 7.46-23.25-5.47-30.28a42 42 0 0 0-7.14-3C97.29 2.6 86.91 2.22 76.46 3.33 70.24 4 64 5.81 58.49 1a6.24 6.24 0 0 0-3.74-.92q-8.47-.15-17 0a5.13 5.13 0 0 0-3.23 1.08c-2.28 2.15-5 2-7.72 2s-5.52-.09-8.26.13c-7.81.64-14 4.1-16.92 11.65s-.39 14 5.2 19.26c1.45 1.37 1.72 2.11.44 3.8a30.86 30.86 0 0 0-5.84 14.81C-.68 69.16-.06 85.57.79 101.94c.3 5.62 2.54 10.88 5.16 16 5.56 10.8 23.8 10.77 29.19-.07.76-1.52 1.62-3 2.71-5 7.25 9.47 16.36 13.25 27.62 12.81 9.41-.37 18.83-.08 28.25-.17 16-.16 28.41-10.33 31.17-26.13 2.03-11.66.59-23.49.89-35.24zm-10.92-47.75c1.71-.32 2.66.55 3.61 1.74 4.69 5.83 1.72 18.07-5.17 21.2-.84.38-13.06-6.08-12.89-6.88 1-4.32-.83-7.59-4.22-10.75 6.25-2.93 12.45-4.15 18.67-5.31zM53.33 64.92c-4.63-1.6-9.23-3.31-13.9-4.76-2.18-.68-2.53-1.65-2-3.79 3.3-12.57 13.48-20.14 27.45-20.23 7 0 6.77 0 7 7.1.2 6.4-1.93 11.21-7.62 14.51-3 1.73-6.07 3.55-8 6.64-.82 1.44-1.85.9-2.93.53zM54.47 71c-.53 3.35-2.7.8-3.95 1.43-3.89-.51-7.73-1.1-11.6-1.49-1.93-.19-2.59-.89-2.63-2.94-.14-6.52-.25-6.52 5.91-4.4 3.12 1.08 6.18 2.36 9.36 3.22 2.34.64 3.32 1.64 2.91 4.18zm13.8-40.24c-.08-.07.09-.59.27-.73 1.49-1.08 2.5.27 3.64.84-1.38.38-2.73 1.02-3.91-.1zm2.66-5.69c-1.71-.4-2.58-1-1.83-2.94.54-1.4-.63-3.7 2.34-3.68 7.41.06 14.76.4 21.41 4.1 2.83 1.58 5.17 3.67 5.31 7.34.1 2.6-.59 4.17-3.66 3.81a49.15 49.15 0 0 0-6.07 0h-3c-2.88 0-5.67.71-6.83-3.63-.85-3.07-4.52-4.25-7.67-4.99zm42.43-10.87c-5.08 1-9.87 1.67-14.14 3.76a11.46 11.46 0 0 1-12-.56c7.24-5.79 19.88-7.54 26.14-3.2zM98.09 8.58c.8-.19 2.07-.29 2.12.4.09 1.2-1.09 1.32-2.12 1.16-3.26 1.15-6.71 1.94-9.74 3.54-4.25 2.25-8.56 2.48-13.23 2.72-5.32.27-7.41-1.93-8.33-6.75a85.62 85.62 0 0 1 31.3-1.07zM6.64 15.41C9.34 10.49 13.89 8.5 19.18 8c2-.2 4.06-.05 6.77-.06 2.75.27 6.74-1.41 8.8 3.39.74 1.75 3.31 1.36 5.19 1.38 3.22 0 6.38.31 9.1 2.26 3.79 2.71 3.76 6.52-.11 9.21a13.84 13.84 0 0 1-7.38 2.21c-1.52.07-2.2-.4-2.82-1.9-2.12-5.14-6-8-11.7-8.08-5.87 0-9.84 2.94-12.14 8.23-.45 1-.74 1.65-2.08 1.59-5.81-.23-9-5.66-6.17-10.82zm25.89 10.76a49.71 49.71 0 0 1-11 .06c3.1-4.8 6.8-4.93 11-.06zM7.64 27.51c12.09 2.6 24.21 1 36.26 1.1a9.13 9.13 0 0 0 2.93-.76c3.91-1.4 7.05-3.65 7.45-8.15.32-3.56-2.8-6.86-7.45-8.52a21.86 21.86 0 0 0-7.7-.88c-1.91 0-3.58-.37-3.68-2.67S37.05 5 38.69 5c5.49 0 11-.36 16.46.23 6.84.74 11.77 7.32 11.66 14.51S61.5 33.45 54.58 33.88a329.17 329.17 0 0 1-37.3.11c-4.2-.21-7.48-2.69-9.64-6.48zm11.51 93.59c-4.53-.08-7.16-2.64-9.21-6.17-3.67-6.31-4.75-13.32-5-20.47-.17-5.37 0-10.75 0-18.18.2-6.93-.75-16 1.66-24.83a36.27 36.27 0 0 1 2.45-7c1.95-3.67 3.69-7.45 8.88-7.84 6.62-.48 12.07.71 14.68 7.67a30.81 30.81 0 0 1 2.19 14.24c-1.29 14.14-2 28.43.3 42.55 1.58 9.7-6.62 20.19-15.95 20.03zm23.09-81.72c-1.43 1.63-2.66 3-4.2 4.8l-2.45-4.78zm-.8 34.29a51.09 51.09 0 0 0 9.42 1.17c2.34.14 3.62.58 3.59 3.44s-.72 3.82-3.53 3.91a73.39 73.39 0 0 0-8.57 1.13c-6.05.93-6.05.94-6-5.89-1.11-4.08.96-4.8 5.09-3.76zM36.29 90.1c-.64-2.75.53-4 3.8-4.14 3.75-.15 7.46-1 11.2-1.4 1.24-.14 3.06-1 3.11 1.58 0 1.74.42 3.26-2.12 3.91-3.91 1-7.67 2.6-11.51 3.92-4.5 1.54-4.51 1.53-4.48-3.87zM67.84 121c-16.52.07-26.29-6.23-30.3-19.6-.78-2.61-.55-3.86 2.27-4.66 5.25-1.49 10.41-3.31 15.61-5 3.18 4.68 8.36 6.94 12.55 10.4 4 3.29 3.65 7.89 3.65 12.38a17.48 17.48 0 0 0 0 2.61c.48 3.03-.73 3.87-3.78 3.87zm52.78-25.66c-1.07 15-12.32 25.35-27.29 25.5-5.21.05-10.43-.17-15.63.13-3.22.18-4.07-1-3.7-4 .16-1.29 0-2.61 0-3.92.39-6.83-2-12.28-8.18-15.48-7.16-3.67-10.19-9.35-9.16-17.37a33 33 0 0 0 0-6.52c-.4-5.66 1.69-10 6.77-12.58C72 56.83 75.31 49.88 74.21 40.72c-.47-3.92.93-5 4.73-4.71 4.75.34 9.55 0 14.32.05 15.79 0 26.68 10.31 27.54 26.19.29 5.35 0 10.73 0 16.1h-.07c-.02 5.65.27 11.34-.11 16.97z"></path><path d="M105.58 59.25C100.71 59 96.22 62.63 94.4 68c-1.15 3.42-.61 6.91-.65 10.37a62.13 62.13 0 0 0 0 7.84c.77 6.3 5.43 10.93 10.86 11.14s10.59-4.07 11.47-10a63.34 63.34 0 0 0 0-18.24 11.71 11.71 0 0 0-10.5-9.86zm-3.6 35c-4.37-2.21-5.89-6-5.91-10.65.27-.89-.55-2.14.62-2.68s1.92.42 2.73.94a11.7 11.7 0 0 1 5.74 10.42c-.01 2.55-1.04 3.09-3.16 2.01zm5.66 0c.28-7.81-2.92-13.21-10.11-15.92-2.74-1-.87-3.16-1.62-5.36 8.41 1.85 13.44 6.41 15.88 13.92 1.21 3.82-.28 6.01-4.15 7.37zM114 84c-3.71-6.71-8.69-11.55-16.32-13.14-1.84-.38-1.15-1.57-.73-2.66 1.48-3.85 4.06-6.38 8.33-6.51 3.82-.11 7.31 3.06 8.43 7.44 1.21 4.87.2 9.87.29 14.87z" ></path><path d="M29.1 78.43v6c-4.55-1.5-2.52-4.29-1.73-6.8-2-1.2-3.19 3.76-5.51.81-.53-.67-1.36-1.35-2.15-.46s-.12 1.69.55 2.22c1.86 1.45.5 2.32-.45 3.41-1.1 1.27-1.85.79-2.79-.16-1.11-1.11-2-2-.23-3.36.7-.53 1.61-2.36.27-2.18-2.23.29-4.22 1.91-6.53 0-.28-.23-.59 1.41-.59 2.21 0 5.22-.17 10.46.26 15.65.43 5.35 1.58 10.64 5.09 15 3.19 3.94 7.41 3.91 10.65 0a15.13 15.13 0 0 0 1.89-2.91c4.43-9.11 3.84-18.89 3.76-28.58-.03-1.72-1.03-2.48-2.49-.85zm-5.8 5.45c1.46 0 2.17 1.62 3.08 2.73-.83 1.18-1.75 2.85-3 2.75a2.74 2.74 0 0 1-.07-5.48zm2.84 12.57c0 1.19-1.49 2.32-2.9 3-1.09-.93-2.84-1.63-2.55-3.13a3.86 3.86 0 0 1 2.66-2.55 3.16 3.16 0 0 1 2.79 2.68zm-7.89-7.59a2.91 2.91 0 0 1 2.9 2.57c.14 1.45-1.47 2.26-2.71 3.06-1.24-.76-2.72-1.55-2.71-3a3.1 3.1 0 0 1 2.52-2.63zm-4.73-5a2.78 2.78 0 0 1 .05 5.55c-1.75.07-1.34-1.75-1.5-2.92.12-1.13-.02-2.7 1.45-2.64zm-.31 15.67c-.57-2.22-1.14-4-.19-5.81 4.34 2.46 4.35 2.53.19 5.8zm2.42 2c0-1.19 1.5-2.29 2.85-3 1.16.85 2.83 1.64 2.62 3.08a3.86 3.86 0 0 1-2.62 2.57c-1.37.12-2.83-1.55-2.85-2.67zm1.75 7.91c-.1-.17.39-1 .62-1 1.66 0 2.25 1.29 3.23 2.83a3.59 3.59 0 0 1-3.85-1.85zm6-.13c-1.1-.09-2.08-1.69-3.1-2.62.76-1.59 1.7-3 3.07-3a2.48 2.48 0 0 1 2.32 2.55c-.06 1.34-.86 3.16-2.26 3.05zm3.73-6.61c-.45.58-1-.08-1.29-.45-1-1.4.2-1.92 1.18-2.55a2.29 2.29 0 0 1 .14 2.98zm1.65-8.14c-4.1-3.1-4.1-3.1 0-5.87.04 1.89.04 3.6.03 5.85z" ></path><path d="M28.25 54.74c-3.11-.09-4.94 1.65-5 4.73a4.4 4.4 0 0 0 4.53 4.79c3 .11 4.76-1.71 5.07-4.8-.27-2.83-1.67-4.64-4.6-4.72zm-.4 7.11a2.3 2.3 0 0 1-2.11-2.72 2.09 2.09 0 0 1 2.39-2 2.11 2.11 0 0 1 2.13 2.64 2.27 2.27 0 0 1-2.41 2.08z" ></path><path d="M20.57 51.66c3.18-.11 5-1.86 5-4.85A4.42 4.42 0 0 0 21 42.07c-3 0-4.9 1.69-4.92 4.85 0 2.93 1.67 4.45 4.49 4.74zm.1-7.12a2.14 2.14 0 0 1 2.45 1.94c.28 1.58-.71 2.38-2.14 2.73-1.31 0-2.3-.58-2.44-2a2.22 2.22 0 0 1 2.13-2.67z" ></path><path d="M13.56 64.3c3-.07 4.81-2 4.66-5.1-.13-2.92-1.9-4.35-4.69-4.47-3 .17-4.73 1.91-4.8 4.66a4.44 4.44 0 0 0 4.83 4.91zm.22-7.14a2.15 2.15 0 0 1 2.11 2.28 2.44 2.44 0 0 1-2.48 2.49c-1.41-.26-2.41-1.07-2.27-2.57a2.26 2.26 0 0 1 2.64-2.2z" ></path></g></g></g></svg>