<svg xmlns="http://www.w3.org/2000/svg" xmlns:xlink="http://www.w3.org/1999/xlink" width="100%" height="auto" viewBox="0 0 960 890">
  <defs>
    <filter id="red-box" x="320" y="0" width="640" height="890" filterUnits="userSpaceOnUse">
      <feOffset dx="6" dy="10" input="SourceAlpha"/>
      <feGaussianBlur stdDeviation="10" result="blur"/>
      <feFlood flood-color="#464646" flood-opacity="0.4"/>
      <feComposite operator="in" in2="blur"/>
      <feComposite in="SourceGraphic"/>
    </filter>
    <clipPath id="clip-path">
      <rect id="white-box" width="582" height="827" transform="translate(1260 139)" fill="#fff"/>
    </clipPath>
  </defs>
  <g id="mayan-icon" transform="translate(-896 -118)">
    <g transform="matrix(1, 0, 0, 1, 896, 118)" filter="url(#red-box)">
      <path id="red-box-2" data-name="red-box" d="M0,0H580V830H0Z" transform="translate(344 20)" fill="rgba(103,0,6,0.8)"/>
    </g>
    <g id="red-icon" transform="translate(896 211)">
      <path id="Path_1" data-name="Path 1" d="M343.524,223.985h-37.9a38.053,38.053,0,0,1-31.555-14.608c-9.669-11.957-20.066-23.653-30.1-35.662a47.982,47.982,0,0,1-7.122-11.541,8.006,8.006,0,0,1,5.2-11.593,50.112,50.112,0,0,1,12.476-2.079c6.6-.416,13.256,0,19.858-.624a28.956,28.956,0,0,0,10.4-2.651,7.538,7.538,0,0,0,0-14.14,29.684,29.684,0,0,0-11.437-2.651c-15.6-.416-30.879-.884-46.267-.572a43.1,43.1,0,0,1-38-18.3,98.766,98.766,0,0,0-9.045-10.4,39.613,39.613,0,0,0-7.434-6.082,14.036,14.036,0,0,0-17.207,1.248,13.152,13.152,0,0,0-3.223,16.427A101.527,101.527,0,0,0,163.5,126.928c21.834,26.357,43.824,52.557,65.709,78.914a80.373,80.373,0,0,1,8.11,11.489c4.419,7.746,1.508,13.828-7.226,15.6a44.658,44.658,0,0,1-7.434.884H208.1a37.637,37.637,0,0,0-32.595,15.128c-13.932,17.051-28.124,33.946-42.212,50.894-1.768,2.131-3.691,4.159-5.2,6.342a36.39,36.39,0,0,1-30.048,14.4H21.371c-17,0-23.185-6.966-20.794-23.653,1.664-12.217,3.9-24.381,6.706-36.39C10.558,246.7,17,241.816,31.144,240.88c5.562-.312,11.177-.312,16.739-.572a32.179,32.179,0,0,0,22.978-9.773c6.394-7.434,13.152-15.232,19.391-23.029a27.188,27.188,0,0,0,4.783-11.177,13.412,13.412,0,0,0-6.5-14.348,12.476,12.476,0,0,0-14.92.312,103.349,103.349,0,0,0-10.4,8.889c-4,3.639-7.59,7.85-11.9,11.073a23.185,23.185,0,0,1-9.981,4.107,8.734,8.734,0,0,1-10.4-10.709,36.7,36.7,0,0,1,2.911-9.617A288.568,288.568,0,0,1,65.039,135.35l.572-.676c9.825-11.7,18.091-12.165,28.02-.572,13.048,15.284,25.993,30.931,38.157,46.787,8.889,11.333,8.838,19.079,0,30.151C118.843,226.272,106,241.3,93.111,256.008A33.842,33.842,0,0,1,67.638,268.12a97.169,97.169,0,0,0-11.021.416,53.962,53.962,0,0,0-9.149,1.352,12.736,12.736,0,0,0-10.4,12.372,11.333,11.333,0,0,0,11.489,10.4c10.4,1.04,21.106.676,31.659,1.2a42.368,42.368,0,0,0,37.429-17.467c11.9-14.92,24.277-29.476,36.7-43.979,6.082-7.746,13.1-15.024,20.014-22.3,8.058-8.422,9.253-14.868,2.079-24.121-12.217-15.6-25.161-31.191-37.793-46.527-7.382-8.889-14.608-17.727-22.146-26.824a66.958,66.958,0,0,1-7.122-11.073,12.373,12.373,0,0,1,.676-13.828c14.556-17.051,30.307-32.959,54.325-34.986,14.608-1.248,29.32-.884,44.032-1.04H245.9a52.766,52.766,0,0,0,13-1.923,8.058,8.058,0,0,0,6.654-8.266,8.422,8.422,0,0,0-6.654-8.162,62.953,62.953,0,0,0-10.813-2.027c-6.966-.832-14.036-1.144-20.794-2.391-2.547-.416-4.679-2.911-7.018-4.471a41.172,41.172,0,0,1,5.2-6.966,20.17,20.17,0,0,1,7.382-3.9c15.024-4.367,30-9.2,45.279-12.528,13.308-2.911,20.326,3.015,20.794,16.687s.624,27.916,0,41.848-6.446,19.183-19.91,19.754c-14.816.624-29.684.26-44.5.52a60.406,60.406,0,0,0-12.217,1.508,7.434,7.434,0,0,0-6.706,6.654,7.746,7.746,0,0,0,5.2,7.954,39.925,39.925,0,0,0,13.048,3.327c19.235.52,38.469.416,57.7.676a126.69,126.69,0,0,1,15.6.936c9.669,1.3,15.128,5.978,15.6,15.6.78,14.348.52,28.748,0,43.148a17.051,17.051,0,0,1-12.788,15.6,44.4,44.4,0,0,0-8.058,3.483,6.706,6.706,0,0,0-1.092,12.165,24.017,24.017,0,0,0,12.372,5.2c20.222.52,40.5.416,60.771,0a23.289,23.289,0,0,0,11.385-4.107,7.226,7.226,0,0,0-.988-13.464,68.537,68.537,0,0,0-8.162-3.327,16.115,16.115,0,0,1-11.437-14.4c-.572-14.764-.832-29.632,0-44.4.468-9.253,6.082-14.14,15.6-15.18,8.162-.884,16.427-.988,24.641-1.144h45.383A53.285,53.285,0,0,0,464.6,97.556a9.1,9.1,0,0,0,7.174-8.993c0-3.587-3.327-6.5-8.838-7.226a173.012,173.012,0,0,0-18.143-1.2H413.028a63.993,63.993,0,0,1-8.318-.624,17.259,17.259,0,0,1-16.271-16.323v-.468c0-15.6-.52-31.191,0-47.1.468-10.4,6.914-15.6,17.467-14.5a170.3,170.3,0,0,1,52.869,14.608,25.109,25.109,0,0,1,6.446,4.471c3.067,2.911,2.651,6.186-1.352,7.538A67.584,67.584,0,0,1,450.2,30.651c-5.822.728-11.749.728-17.571,1.56-7.07,1.144-11.177,4.783-11.177,9.357s4.367,8.37,11.645,9.305a116.238,116.238,0,0,0,14.088.728q36.13.468,72.312.832a46.371,46.371,0,0,1,28.436,9.045c7.85,5.926,15.6,11.853,22.978,18.507,10.4,9.721,11.333,18.039,2.287,29.268-17.467,21.782-35.454,43.1-53.181,64.722a143.886,143.886,0,0,0-11.281,15.336,13.672,13.672,0,0,0,1.923,18.143c20.118,23.237,40.393,46.267,60.147,69.712a40.5,40.5,0,0,0,33.53,16.219c9.981-.26,19.962,0,29.944-.364a29.528,29.528,0,0,0,8.994-1.871,10.74,10.74,0,0,0,2.131-19.442,25.629,25.629,0,0,0-8.578-3.223,84.635,84.635,0,0,0-13.568-.936,37.481,37.481,0,0,1-30.307-13.516c-10.917-12.217-21.834-24.537-32.231-36.91-2.391-2.755-4.731-5.614-6.862-8.63a18.871,18.871,0,0,1-.364-24.8c4.211-6.186,9.1-11.9,13.828-17.727,8.318-10.4,16.531-20.794,25.161-30.671,11.281-13.1,19.859-12.84,30.255.832a270.338,270.338,0,0,1,30.775,50.79,30.776,30.776,0,0,1,2.547,8.837,8.682,8.682,0,0,1-11.229,10.4,35.5,35.5,0,0,1-12.58-6.446c-4.887-3.9-8.89-8.941-13.568-13.2-7.486-6.862-14.5-7.746-20.482-2.911a15.6,15.6,0,0,0-2.7,21.886,262.265,262.265,0,0,0,24.381,28.228,28.436,28.436,0,0,0,20.014,6.914c6.446,0,12.892.312,19.339.728A20.222,20.222,0,0,1,678.725,255.9a172.381,172.381,0,0,1,8.526,47.567c.364,9.929-4.575,15.232-14.5,16.739a90.934,90.934,0,0,1-13.568.676c-20.43,0-40.86-.312-61.291,0a42.368,42.368,0,0,1-34.934-15.6c-15.856-18.143-32.387-35.662-48.138-53.909a44.863,44.863,0,0,0-39.353-17.363,76.468,76.468,0,0,1-17.571-.728c-9.877-1.56-13-8.214-7.538-16.583a221.619,221.619,0,0,1,16.063-20.794c19.858-23.965,39.925-47.826,59.783-71.844a72.775,72.775,0,0,0,8.526-12.736A13.36,13.36,0,0,0,531.867,94.8a14.036,14.036,0,0,0-17.155-1.716,31.5,31.5,0,0,0-6.862,5.2c-4.627,4.939-9.149,9.981-13.464,15.128A37.638,37.638,0,0,1,464.7,127.448c-15.128,0-30.255.26-45.383.624a73.247,73.247,0,0,0-13.932,1.508,8.941,8.941,0,0,0-7.954,8.266,8.838,8.838,0,0,0,8.006,8.63,136.513,136.513,0,0,0,16.635,1.612c6.29.416,12.632,0,18.871,1.092,10.085,1.612,12.788,8.11,7.59,16.947a43.445,43.445,0,0,1-4.263,6.186c-10.761,12.84-21.626,25.577-32.491,38.365a35.3,35.3,0,0,1-28.592,13.1H343.524Z" transform="translate(0.599 3.039)" fill="#79272b"/>
      <path id="Path_2" data-name="Path 2" d="M42.94,388.305V350.876a39.561,39.561,0,0,1,14.5-32.595c6.862-5.77,13.36-11.957,20.118-17.831a38.521,38.521,0,0,0,13.62-30.359c0-6.6,0-13.2.312-19.806.676-12.944,5.2-18.559,18.143-20.222a38.209,38.209,0,0,0,27.188-16.115c8.006-11.073,16.375-21.886,24.121-33.115A35.973,35.973,0,0,0,167.289,167a21.627,21.627,0,0,0-2.6-12.84,11.489,11.489,0,0,0-17.1-4,42.213,42.213,0,0,0-8.889,7.8q-11.541,13-22.562,26.513a36.39,36.39,0,0,1-30.723,14.244,103.975,103.975,0,0,1-17.1-1.456c-7.8-1.56-10.033-7.486-5.2-13.724a32.7,32.7,0,0,1,11.177-9.2,85.047,85.047,0,0,0,32.387-26.512c5.562-7.018,11.645-13.62,17-20.794,7.018-9.409,7.434-17.415,0-26.669q-14.66-19.027-31.191-36.7A81.828,81.828,0,0,0,77.614,53.624a86.4,86.4,0,0,1-13.776-9.981c-6.6-6.914-4.367-13.88,4.939-15.6,17.987-3.691,34.31-1.612,47.151,13.724,20.794,24.953,42.576,49.386,63.526,74.391a44.4,44.4,0,0,0,37.169,17.311c23.6-.52,47.255,0,70.908,0a82.269,82.269,0,0,1,10.4.572c10.085,1.248,15.6,6.914,15.128,17.051a240.247,240.247,0,0,1-4.419,32.231A338.528,338.528,0,0,1,251.3,314.694a53.382,53.382,0,0,1-7.85,8.889,14.5,14.5,0,0,1-18.663,1.923,32.167,32.167,0,0,1-5.2-3.639c-9.513-8.11-19.131-16.064-28.332-24.485-10.4-9.721-11.957-17.467-4.367-29.684,11.177-17.935,22.874-35.558,34.622-53.129a28.851,28.851,0,0,1,8.266-8.37,9.358,9.358,0,0,1,8.006-.78,8.474,8.474,0,0,1,2.963,7.018,53.283,53.283,0,0,1-3.223,13.2c-3.015,8.734-6.6,17.259-9.617,25.993a55.683,55.683,0,0,0-2.859,11.957,9.618,9.618,0,0,0,5.2,10.761,9.305,9.305,0,0,0,11.437-3.171,55.941,55.941,0,0,0,7.538-10.917,408.511,408.511,0,0,0,30.048-73.247c5.51-18.4-.676-26.357-20.014-26.668H238.093A34.934,34.934,0,0,0,206.9,176.309c-10.085,14.452-20.274,28.852-30.411,43.252L155.7,249.5a48.087,48.087,0,0,1-18.143,16.324,23.965,23.965,0,0,0-14.036,23.5q0,37.43,0,74.911a37.221,37.221,0,0,0,1.716,10.4,10.4,10.4,0,0,0,14.036,7.642,35.922,35.922,0,0,0,19.7-14.14,17.779,17.779,0,0,0,1.871-16.063,111.658,111.658,0,0,1-4.159-13.88,36.388,36.388,0,0,1,0-12.58,7.434,7.434,0,0,1,10.761-5.771,33.74,33.74,0,0,1,9.149,5.2c7.486,5.926,14.92,11.957,21.99,18.351,11.7,10.4,11.853,18.767,0,29.58a306.241,306.241,0,0,1-54.065,39.3c-7.486,4.367-15.232,8.266-22.925,12.269a47.427,47.427,0,0,1-7.8,3.015c-9.461,2.651-15.96-1.248-16.9-11.073s-.78-19.027-.884-28.592c0-11.749,0-23.5-.312-35.246a34.051,34.051,0,0,0-2.079-11.177A8.578,8.578,0,0,0,79.9,337.411a19.131,19.131,0,0,0-8.682,13.672,125.618,125.618,0,0,0-1.248,17.1v50.686a84.221,84.221,0,0,1-1.508,15.6A20.431,20.431,0,0,1,64.1,442.89,11.489,11.489,0,0,1,52.193,447a10.4,10.4,0,0,1-7.9-9.149,68.828,68.828,0,0,1-1.2-11.8C42.836,413.466,42.94,400.938,42.94,388.305Z" transform="translate(375.59 223.142)" fill="#79272b"/>
      <path id="Path_3" data-name="Path 3" d="M61.024,133.735c11.489,0,22.926-.416,34.362,0A44.707,44.707,0,0,0,134.011,115.8c18.819-22.77,38.261-44.967,57.5-67.581a54.524,54.524,0,0,0,4.315-5.2c11.957-15.908,28.384-18.455,46.787-15.6a20.219,20.219,0,0,1,3.847,1.092,7.8,7.8,0,0,1,4.315,13.152,25.992,25.992,0,0,1-9.617,8.733c-23.653,10.4-36.39,31.191-51.569,50.062a18.923,18.923,0,0,0,0,26.3c9.513,12.113,19.546,23.913,30.151,35.038a93.572,93.572,0,0,0,16.375,10.865,75.071,75.071,0,0,1,13.308,10.345c6.238,6.81,3.9,13.828-5.2,14.868a131.935,131.935,0,0,1-27.552,0,28.644,28.644,0,0,1-18.195-11.593c-7.434-8.526-14.556-17.259-21.99-25.993a51.2,51.2,0,0,0-8.578-8.214,12.217,12.217,0,0,0-20.17,8.474,20.066,20.066,0,0,0,2.911,15.388c9.877,14.556,19.91,29.008,30.307,43.252A27.189,27.189,0,0,0,199.3,229.6c2.443.416,4.887.884,7.33,1.456a16.583,16.583,0,0,1,14.92,16.583c.624,7.642.728,15.284.728,22.925a38.417,38.417,0,0,0,13.88,30.619c7.226,6.29,14.244,12.736,21.366,19.079a35.818,35.818,0,0,1,12.684,28.176v81.513a33.741,33.741,0,0,1-1.664,10.4,10.4,10.4,0,0,1-16.323,5.614,15.6,15.6,0,0,1-7.486-11.437,126.58,126.58,0,0,1-1.248-16.635c0-19.391,0-38.781-.416-58.172a31.192,31.192,0,0,0-2.183-12.009,26.825,26.825,0,0,0-7.59-9.877,8.006,8.006,0,0,0-13.2,3.951,57.807,57.807,0,0,0-2.443,16.375c-.312,16.583,0,33.219,0,49.8a52.3,52.3,0,0,1-1.2,11.385,10.969,10.969,0,0,1-14.5,8.993,65.864,65.864,0,0,1-13.152-5.2,341.7,341.7,0,0,1-71.532-47.982,55.256,55.256,0,0,1-6.394-6.654c-5.718-7.018-6.082-14.4.468-20.794,9.721-9.149,20.17-17.467,30.619-25.993A9.877,9.877,0,0,1,153.506,320a10.4,10.4,0,0,1,4.627,11.177,74.13,74.13,0,0,1-3.483,15.6,26.564,26.564,0,0,0,21.47,36.026,9.929,9.929,0,0,0,11.7-6.446,28.177,28.177,0,0,0,2.079-9.825V287.664a21.99,21.99,0,0,0-12.58-20.794,57.7,57.7,0,0,1-21.106-19.235q-22.354-32.179-44.967-64.254c-.416-.624-.884-1.2-1.248-1.82a39.249,39.249,0,0,0-39.249-20.794c-8.162.624-16.479,0-24.589.988-10.4,1.2-15.6,7.33-14.088,17.519a199.049,199.049,0,0,0,8.162,31.971,236.639,236.639,0,0,0,25.213,53.233,34,34,0,0,0,8.786,9.669,8.889,8.889,0,0,0,14.712-6.862,35.558,35.558,0,0,0-2.131-13.308c-3.691-10.4-8.058-20.794-11.9-31.191a35.921,35.921,0,0,1-2.339-10.4,6.03,6.03,0,0,1,9.773-6.342,24.068,24.068,0,0,1,7.434,6.654c12.788,19.027,25.681,38,37.845,57.184,6.342,10.033,5.2,17.935-3.743,25.993-10.4,9.513-20.794,18.663-31.711,27.292-9.721,7.694-17.831,6.706-25.733-2.911a275.108,275.108,0,0,1-34.57-55.78A332.706,332.706,0,0,1,.149,156.764a34.622,34.622,0,0,1,0-6.134c.728-10.085,5.614-15.6,15.6-16.167s20.274-.468,30.411-.572H61.128Z" transform="translate(-0.013 222.62)" fill="#79272b"/>
      <path id="Path_4" data-name="Path 4" d="M112.31,47.373H170.9a75.262,75.262,0,0,1,11.853.78,15.6,15.6,0,0,1,14.92,15.284,147.844,147.844,0,0,1,0,21.99,28.384,28.384,0,0,1-9.617,18.819,187.169,187.169,0,0,1-16.947,14.764,41.588,41.588,0,0,0-16.583,36.078c.364,12.476,0,24.953,0,37.429a47.668,47.668,0,0,1-1.923,13,12.373,12.373,0,0,1-12.528,9.2,12.061,12.061,0,0,1-10.969-10.4,25.628,25.628,0,0,1-.988-6.55V133.461a32.231,32.231,0,0,1,10.709-23.445c5.2-4.731,10.4-9.305,14.972-14.3,3.691-3.795,7.694-8.006,5.614-13.88S151.247,74.977,146,74.977q-33.894-.364-67.581,0a12.165,12.165,0,0,0-12.788,6.862c-2.027,5.2,1.456,9.617,4.939,13.256,4.575,4.783,9.409,9.253,14.3,13.724a34.831,34.831,0,0,1,12.112,26.409v61.239a33.526,33.526,0,0,1-1.3,8.734,11.8,11.8,0,0,1-22.77,1.56,40.808,40.808,0,0,1-2.391-12.424c-.312-13.36-.468-26.772,0-40.133a40.444,40.444,0,0,0-15.908-34.57,193.31,193.31,0,0,1-16.323-13.776A32.543,32.543,0,0,1,26.69,81.527,152.251,152.251,0,0,1,27,63.956a15.6,15.6,0,0,1,14.972-15.6,75.264,75.264,0,0,1,11.9-.936Z" transform="translate(231.917 405.675)" fill="#79272b"/>
      <path id="Path_5" data-name="Path 5" d="M142.815,32.592h83.748a35.246,35.246,0,0,1,32.023,16.739,18.715,18.715,0,0,1,0,22.25,33.427,33.427,0,0,1-26.3,16.323c-3.379.26-6.758.468-10.137.468H60.366a37.065,37.065,0,0,1-30.619-12.58c-8.318-9.929-8.682-18.767-.832-29.06a32.751,32.751,0,0,1,25.993-13.88c9.1-.312,18.195-.364,27.292-.364h60.823Z" transform="translate(203.023 279.743)" fill="#79272b"/>
      <path id="Path_6" data-name="Path 6" d="M81.9,42.066h36.13a26.464,26.464,0,0,1,6.914,1.2,7.85,7.85,0,0,1,4.679,13.256,23.237,23.237,0,0,1-13.256,9.669,43.819,43.819,0,0,1-11.229,1.923H54.919a27.812,27.812,0,0,1-19.962-8.526c-3.015-3.067-5.926-6.5-4.419-11.229a10.033,10.033,0,0,1,9.981-6.03c8.474-.624,17-.728,25.525-.936H81.9Z" transform="translate(263.003 356.629)" fill="#79272b"/>
      <path id="Path_7" data-name="Path 7" d="M80.8,53.024H47.267a39.87,39.87,0,0,1-11.593-1.975A7.122,7.122,0,0,1,31.62,39.716,23.446,23.446,0,0,1,46.747,28.435a51.985,51.985,0,0,1,12.58-1.871h44.5a34.415,34.415,0,0,1,19.287,5.2,23.043,23.043,0,0,1,3.119,2.443c3.327,3.223,6.654,6.758,5.2,11.8s-6.238,6.186-10.4,6.29H81.006Z" transform="translate(262.857 228.736)" fill="#79272b"/>
      <path id="Path_8" data-name="Path 8" d="M34.336,39.772c0-7.9-.26-15.856,0-23.757A23.393,23.393,0,0,1,36.987,6.4a11.333,11.333,0,0,1,20.274-.26A29.475,29.475,0,0,1,60.433,18.77c.364,14.036.312,28.124,0,42.212a33.948,33.948,0,0,1-2.443,11.489,11.7,11.7,0,0,1-21.626,0,34.206,34.206,0,0,1-2.235-10.4c-.364-7.33,0-14.66,0-21.99Z" transform="translate(296.531 0)" fill="#79272b"/>
      <path id="Path_9" data-name="Path 9" d="M71.028,68.153H89.535a76.729,76.729,0,0,1,10.969.78,11.541,11.541,0,0,1,9.929,9.825,11.749,11.749,0,0,1-6.758,12.684A23.912,23.912,0,0,1,94.058,94.3c-15.6.26-31.191,0-46.787,0a23.446,23.446,0,0,1-8.786-2.6,12.321,12.321,0,0,1-7.122-13A11.541,11.541,0,0,1,41.4,68.985a64.441,64.441,0,0,1,10.4-.78H70.768Z" transform="translate(272.679 587.221)" fill="#79272b"/>
    </g>
    <g id="clip-mask" transform="translate(-21)" clip-path="url(#clip-path)">
      <g id="white-icon" transform="translate(917 211)">
        <path id="Path_1-2" data-name="Path 1" d="M343.524,223.985h-37.9a38.053,38.053,0,0,1-31.555-14.608c-9.669-11.957-20.066-23.653-30.1-35.662a47.982,47.982,0,0,1-7.122-11.541,8.006,8.006,0,0,1,5.2-11.593,50.112,50.112,0,0,1,12.476-2.079c6.6-.416,13.256,0,19.858-.624a28.956,28.956,0,0,0,10.4-2.651,7.538,7.538,0,0,0,0-14.14,29.684,29.684,0,0,0-11.437-2.651c-15.6-.416-30.879-.884-46.267-.572a43.1,43.1,0,0,1-38-18.3,98.766,98.766,0,0,0-9.045-10.4,39.613,39.613,0,0,0-7.434-6.082,14.036,14.036,0,0,0-17.207,1.248,13.152,13.152,0,0,0-3.223,16.427A101.527,101.527,0,0,0,163.5,126.928c21.834,26.357,43.824,52.557,65.709,78.914a80.373,80.373,0,0,1,8.11,11.489c4.419,7.746,1.508,13.828-7.226,15.6a44.658,44.658,0,0,1-7.434.884H208.1a37.637,37.637,0,0,0-32.595,15.128c-13.932,17.051-28.124,33.946-42.212,50.894-1.768,2.131-3.691,4.159-5.2,6.342a36.39,36.39,0,0,1-30.048,14.4H21.371c-17,0-23.185-6.966-20.794-23.653,1.664-12.217,3.9-24.381,6.706-36.39C10.558,246.7,17,241.816,31.144,240.88c5.562-.312,11.177-.312,16.739-.572a32.179,32.179,0,0,0,22.978-9.773c6.394-7.434,13.152-15.232,19.391-23.029a27.188,27.188,0,0,0,4.783-11.177,13.412,13.412,0,0,0-6.5-14.348,12.476,12.476,0,0,0-14.92.312,103.349,103.349,0,0,0-10.4,8.889c-4,3.639-7.59,7.85-11.9,11.073a23.185,23.185,0,0,1-9.981,4.107,8.734,8.734,0,0,1-10.4-10.709,36.7,36.7,0,0,1,2.911-9.617A288.568,288.568,0,0,1,65.039,135.35l.572-.676c9.825-11.7,18.091-12.165,28.02-.572,13.048,15.284,25.993,30.931,38.157,46.787,8.889,11.333,8.838,19.079,0,30.151C118.843,226.272,106,241.3,93.111,256.008A33.842,33.842,0,0,1,67.638,268.12a97.169,97.169,0,0,0-11.021.416,53.962,53.962,0,0,0-9.149,1.352,12.736,12.736,0,0,0-10.4,12.372,11.333,11.333,0,0,0,11.489,10.4c10.4,1.04,21.106.676,31.659,1.2a42.368,42.368,0,0,0,37.429-17.467c11.9-14.92,24.277-29.476,36.7-43.979,6.082-7.746,13.1-15.024,20.014-22.3,8.058-8.422,9.253-14.868,2.079-24.121-12.217-15.6-25.161-31.191-37.793-46.527-7.382-8.889-14.608-17.727-22.146-26.824a66.958,66.958,0,0,1-7.122-11.073,12.373,12.373,0,0,1,.676-13.828c14.556-17.051,30.307-32.959,54.325-34.986,14.608-1.248,29.32-.884,44.032-1.04H245.9a52.766,52.766,0,0,0,13-1.923,8.058,8.058,0,0,0,6.654-8.266,8.422,8.422,0,0,0-6.654-8.162,62.953,62.953,0,0,0-10.813-2.027c-6.966-.832-14.036-1.144-20.794-2.391-2.547-.416-4.679-2.911-7.018-4.471a41.172,41.172,0,0,1,5.2-6.966,20.17,20.17,0,0,1,7.382-3.9c15.024-4.367,30-9.2,45.279-12.528,13.308-2.911,20.326,3.015,20.794,16.687s.624,27.916,0,41.848-6.446,19.183-19.91,19.754c-14.816.624-29.684.26-44.5.52a60.406,60.406,0,0,0-12.217,1.508,7.434,7.434,0,0,0-6.706,6.654,7.746,7.746,0,0,0,5.2,7.954,39.925,39.925,0,0,0,13.048,3.327c19.235.52,38.469.416,57.7.676a126.69,126.69,0,0,1,15.6.936c9.669,1.3,15.128,5.978,15.6,15.6.78,14.348.52,28.748,0,43.148a17.051,17.051,0,0,1-12.788,15.6,44.4,44.4,0,0,0-8.058,3.483,6.706,6.706,0,0,0-1.092,12.165,24.017,24.017,0,0,0,12.372,5.2c20.222.52,40.5.416,60.771,0a23.289,23.289,0,0,0,11.385-4.107,7.226,7.226,0,0,0-.988-13.464,68.537,68.537,0,0,0-8.162-3.327,16.115,16.115,0,0,1-11.437-14.4c-.572-14.764-.832-29.632,0-44.4.468-9.253,6.082-14.14,15.6-15.18,8.162-.884,16.427-.988,24.641-1.144h45.383A53.285,53.285,0,0,0,464.6,97.556a9.1,9.1,0,0,0,7.174-8.993c0-3.587-3.327-6.5-8.838-7.226a173.012,173.012,0,0,0-18.143-1.2H413.028a63.993,63.993,0,0,1-8.318-.624,17.259,17.259,0,0,1-16.271-16.323v-.468c0-15.6-.52-31.191,0-47.1.468-10.4,6.914-15.6,17.467-14.5a170.3,170.3,0,0,1,52.869,14.608,25.109,25.109,0,0,1,6.446,4.471c3.067,2.911,2.651,6.186-1.352,7.538A67.584,67.584,0,0,1,450.2,30.651c-5.822.728-11.749.728-17.571,1.56-7.07,1.144-11.177,4.783-11.177,9.357s4.367,8.37,11.645,9.305a116.238,116.238,0,0,0,14.088.728q36.13.468,72.312.832a46.371,46.371,0,0,1,28.436,9.045c7.85,5.926,15.6,11.853,22.978,18.507,10.4,9.721,11.333,18.039,2.287,29.268-17.467,21.782-35.454,43.1-53.181,64.722a143.886,143.886,0,0,0-11.281,15.336,13.672,13.672,0,0,0,1.923,18.143c20.118,23.237,40.393,46.267,60.147,69.712a40.5,40.5,0,0,0,33.53,16.219c9.981-.26,19.962,0,29.944-.364a29.528,29.528,0,0,0,8.994-1.871,10.74,10.74,0,0,0,2.131-19.442,25.629,25.629,0,0,0-8.578-3.223,84.635,84.635,0,0,0-13.568-.936,37.481,37.481,0,0,1-30.307-13.516c-10.917-12.217-21.834-24.537-32.231-36.91-2.391-2.755-4.731-5.614-6.862-8.63a18.871,18.871,0,0,1-.364-24.8c4.211-6.186,9.1-11.9,13.828-17.727,8.318-10.4,16.531-20.794,25.161-30.671,11.281-13.1,19.859-12.84,30.255.832a270.338,270.338,0,0,1,30.775,50.79,30.776,30.776,0,0,1,2.547,8.837,8.682,8.682,0,0,1-11.229,10.4,35.5,35.5,0,0,1-12.58-6.446c-4.887-3.9-8.89-8.941-13.568-13.2-7.486-6.862-14.5-7.746-20.482-2.911a15.6,15.6,0,0,0-2.7,21.886,262.265,262.265,0,0,0,24.381,28.228,28.436,28.436,0,0,0,20.014,6.914c6.446,0,12.892.312,19.339.728A20.222,20.222,0,0,1,678.725,255.9a172.381,172.381,0,0,1,8.526,47.567c.364,9.929-4.575,15.232-14.5,16.739a90.934,90.934,0,0,1-13.568.676c-20.43,0-40.86-.312-61.291,0a42.368,42.368,0,0,1-34.934-15.6c-15.856-18.143-32.387-35.662-48.138-53.909a44.863,44.863,0,0,0-39.353-17.363,76.468,76.468,0,0,1-17.571-.728c-9.877-1.56-13-8.214-7.538-16.583a221.619,221.619,0,0,1,16.063-20.794c19.858-23.965,39.925-47.826,59.783-71.844a72.775,72.775,0,0,0,8.526-12.736A13.36,13.36,0,0,0,531.867,94.8a14.036,14.036,0,0,0-17.155-1.716,31.5,31.5,0,0,0-6.862,5.2c-4.627,4.939-9.149,9.981-13.464,15.128A37.638,37.638,0,0,1,464.7,127.448c-15.128,0-30.255.26-45.383.624a73.247,73.247,0,0,0-13.932,1.508,8.941,8.941,0,0,0-7.954,8.266,8.838,8.838,0,0,0,8.006,8.63,136.513,136.513,0,0,0,16.635,1.612c6.29.416,12.632,0,18.871,1.092,10.085,1.612,12.788,8.11,7.59,16.947a43.445,43.445,0,0,1-4.263,6.186c-10.761,12.84-21.626,25.577-32.491,38.365a35.3,35.3,0,0,1-28.592,13.1H343.524Z" transform="translate(0.599 3.039)" fill="#fff"/>
        <path id="Path_2-2" data-name="Path 2" d="M42.94,388.305V350.876a39.561,39.561,0,0,1,14.5-32.595c6.862-5.77,13.36-11.957,20.118-17.831a38.521,38.521,0,0,0,13.62-30.359c0-6.6,0-13.2.312-19.806.676-12.944,5.2-18.559,18.143-20.222a38.209,38.209,0,0,0,27.188-16.115c8.006-11.073,16.375-21.886,24.121-33.115A35.973,35.973,0,0,0,167.289,167a21.627,21.627,0,0,0-2.6-12.84,11.489,11.489,0,0,0-17.1-4,42.213,42.213,0,0,0-8.889,7.8q-11.541,13-22.562,26.513a36.39,36.39,0,0,1-30.723,14.244,103.975,103.975,0,0,1-17.1-1.456c-7.8-1.56-10.033-7.486-5.2-13.724a32.7,32.7,0,0,1,11.177-9.2,85.047,85.047,0,0,0,32.387-26.512c5.562-7.018,11.645-13.62,17-20.794,7.018-9.409,7.434-17.415,0-26.669q-14.66-19.027-31.191-36.7A81.828,81.828,0,0,0,77.614,53.624a86.4,86.4,0,0,1-13.776-9.981c-6.6-6.914-4.367-13.88,4.939-15.6,17.987-3.691,34.31-1.612,47.151,13.724,20.794,24.953,42.576,49.386,63.526,74.391a44.4,44.4,0,0,0,37.169,17.311c23.6-.52,47.255,0,70.908,0a82.269,82.269,0,0,1,10.4.572c10.085,1.248,15.6,6.914,15.128,17.051a240.247,240.247,0,0,1-4.419,32.231A338.528,338.528,0,0,1,251.3,314.694a53.382,53.382,0,0,1-7.85,8.889,14.5,14.5,0,0,1-18.663,1.923,32.167,32.167,0,0,1-5.2-3.639c-9.513-8.11-19.131-16.064-28.332-24.485-10.4-9.721-11.957-17.467-4.367-29.684,11.177-17.935,22.874-35.558,34.622-53.129a28.851,28.851,0,0,1,8.266-8.37,9.358,9.358,0,0,1,8.006-.78,8.474,8.474,0,0,1,2.963,7.018,53.283,53.283,0,0,1-3.223,13.2c-3.015,8.734-6.6,17.259-9.617,25.993a55.683,55.683,0,0,0-2.859,11.957,9.618,9.618,0,0,0,5.2,10.761,9.305,9.305,0,0,0,11.437-3.171,55.941,55.941,0,0,0,7.538-10.917,408.511,408.511,0,0,0,30.048-73.247c5.51-18.4-.676-26.357-20.014-26.668H238.093A34.934,34.934,0,0,0,206.9,176.309c-10.085,14.452-20.274,28.852-30.411,43.252L155.7,249.5a48.087,48.087,0,0,1-18.143,16.324,23.965,23.965,0,0,0-14.036,23.5q0,37.43,0,74.911a37.221,37.221,0,0,0,1.716,10.4,10.4,10.4,0,0,0,14.036,7.642,35.922,35.922,0,0,0,19.7-14.14,17.779,17.779,0,0,0,1.871-16.063,111.658,111.658,0,0,1-4.159-13.88,36.388,36.388,0,0,1,0-12.58,7.434,7.434,0,0,1,10.761-5.771,33.74,33.74,0,0,1,9.149,5.2c7.486,5.926,14.92,11.957,21.99,18.351,11.7,10.4,11.853,18.767,0,29.58a306.241,306.241,0,0,1-54.065,39.3c-7.486,4.367-15.232,8.266-22.925,12.269a47.427,47.427,0,0,1-7.8,3.015c-9.461,2.651-15.96-1.248-16.9-11.073s-.78-19.027-.884-28.592c0-11.749,0-23.5-.312-35.246a34.051,34.051,0,0,0-2.079-11.177A8.578,8.578,0,0,0,79.9,337.411a19.131,19.131,0,0,0-8.682,13.672,125.618,125.618,0,0,0-1.248,17.1v50.686a84.221,84.221,0,0,1-1.508,15.6A20.431,20.431,0,0,1,64.1,442.89,11.489,11.489,0,0,1,52.193,447a10.4,10.4,0,0,1-7.9-9.149,68.828,68.828,0,0,1-1.2-11.8C42.836,413.466,42.94,400.938,42.94,388.305Z" transform="translate(375.59 223.142)" fill="#fff"/>
        <path id="Path_3-2" data-name="Path 3" d="M61.024,133.735c11.489,0,22.926-.416,34.362,0A44.707,44.707,0,0,0,134.011,115.8c18.819-22.77,38.261-44.967,57.5-67.581a54.524,54.524,0,0,0,4.315-5.2c11.957-15.908,28.384-18.455,46.787-15.6a20.219,20.219,0,0,1,3.847,1.092,7.8,7.8,0,0,1,4.315,13.152,25.992,25.992,0,0,1-9.617,8.733c-23.653,10.4-36.39,31.191-51.569,50.062a18.923,18.923,0,0,0,0,26.3c9.513,12.113,19.546,23.913,30.151,35.038a93.572,93.572,0,0,0,16.375,10.865,75.071,75.071,0,0,1,13.308,10.345c6.238,6.81,3.9,13.828-5.2,14.868a131.935,131.935,0,0,1-27.552,0,28.644,28.644,0,0,1-18.195-11.593c-7.434-8.526-14.556-17.259-21.99-25.993a51.2,51.2,0,0,0-8.578-8.214,12.217,12.217,0,0,0-20.17,8.474,20.066,20.066,0,0,0,2.911,15.388c9.877,14.556,19.91,29.008,30.307,43.252A27.189,27.189,0,0,0,199.3,229.6c2.443.416,4.887.884,7.33,1.456a16.583,16.583,0,0,1,14.92,16.583c.624,7.642.728,15.284.728,22.925a38.417,38.417,0,0,0,13.88,30.619c7.226,6.29,14.244,12.736,21.366,19.079a35.818,35.818,0,0,1,12.684,28.176v81.513a33.741,33.741,0,0,1-1.664,10.4,10.4,10.4,0,0,1-16.323,5.614,15.6,15.6,0,0,1-7.486-11.437,126.58,126.58,0,0,1-1.248-16.635c0-19.391,0-38.781-.416-58.172a31.192,31.192,0,0,0-2.183-12.009,26.825,26.825,0,0,0-7.59-9.877,8.006,8.006,0,0,0-13.2,3.951,57.807,57.807,0,0,0-2.443,16.375c-.312,16.583,0,33.219,0,49.8a52.3,52.3,0,0,1-1.2,11.385,10.969,10.969,0,0,1-14.5,8.993,65.864,65.864,0,0,1-13.152-5.2,341.7,341.7,0,0,1-71.532-47.982,55.256,55.256,0,0,1-6.394-6.654c-5.718-7.018-6.082-14.4.468-20.794,9.721-9.149,20.17-17.467,30.619-25.993A9.877,9.877,0,0,1,153.506,320a10.4,10.4,0,0,1,4.627,11.177,74.13,74.13,0,0,1-3.483,15.6,26.564,26.564,0,0,0,21.47,36.026,9.929,9.929,0,0,0,11.7-6.446,28.177,28.177,0,0,0,2.079-9.825V287.664a21.99,21.99,0,0,0-12.58-20.794,57.7,57.7,0,0,1-21.106-19.235q-22.354-32.179-44.967-64.254c-.416-.624-.884-1.2-1.248-1.82a39.249,39.249,0,0,0-39.249-20.794c-8.162.624-16.479,0-24.589.988-10.4,1.2-15.6,7.33-14.088,17.519a199.049,199.049,0,0,0,8.162,31.971,236.639,236.639,0,0,0,25.213,53.233,34,34,0,0,0,8.786,9.669,8.889,8.889,0,0,0,14.712-6.862,35.558,35.558,0,0,0-2.131-13.308c-3.691-10.4-8.058-20.794-11.9-31.191a35.921,35.921,0,0,1-2.339-10.4,6.03,6.03,0,0,1,9.773-6.342,24.068,24.068,0,0,1,7.434,6.654c12.788,19.027,25.681,38,37.845,57.184,6.342,10.033,5.2,17.935-3.743,25.993-10.4,9.513-20.794,18.663-31.711,27.292-9.721,7.694-17.831,6.706-25.733-2.911a275.108,275.108,0,0,1-34.57-55.78A332.706,332.706,0,0,1,.149,156.764a34.622,34.622,0,0,1,0-6.134c.728-10.085,5.614-15.6,15.6-16.167s20.274-.468,30.411-.572H61.128Z" transform="translate(-0.013 222.62)" fill="#fff"/>
        <path id="Path_4-2" data-name="Path 4" d="M112.31,47.373H170.9a75.262,75.262,0,0,1,11.853.78,15.6,15.6,0,0,1,14.92,15.284,147.844,147.844,0,0,1,0,21.99,28.384,28.384,0,0,1-9.617,18.819,187.169,187.169,0,0,1-16.947,14.764,41.588,41.588,0,0,0-16.583,36.078c.364,12.476,0,24.953,0,37.429a47.668,47.668,0,0,1-1.923,13,12.373,12.373,0,0,1-12.528,9.2,12.061,12.061,0,0,1-10.969-10.4,25.628,25.628,0,0,1-.988-6.55V133.461a32.231,32.231,0,0,1,10.709-23.445c5.2-4.731,10.4-9.305,14.972-14.3,3.691-3.795,7.694-8.006,5.614-13.88S151.247,74.977,146,74.977q-33.894-.364-67.581,0a12.165,12.165,0,0,0-12.788,6.862c-2.027,5.2,1.456,9.617,4.939,13.256,4.575,4.783,9.409,9.253,14.3,13.724a34.831,34.831,0,0,1,12.112,26.409v61.239a33.526,33.526,0,0,1-1.3,8.734,11.8,11.8,0,0,1-22.77,1.56,40.808,40.808,0,0,1-2.391-12.424c-.312-13.36-.468-26.772,0-40.133a40.444,40.444,0,0,0-15.908-34.57,193.31,193.31,0,0,1-16.323-13.776A32.543,32.543,0,0,1,26.69,81.527,152.251,152.251,0,0,1,27,63.956a15.6,15.6,0,0,1,14.972-15.6,75.264,75.264,0,0,1,11.9-.936Z" transform="translate(231.917 405.675)" fill="#fff"/>
        <path id="Path_5-2" data-name="Path 5" d="M142.815,32.592h83.748a35.246,35.246,0,0,1,32.023,16.739,18.715,18.715,0,0,1,0,22.25,33.427,33.427,0,0,1-26.3,16.323c-3.379.26-6.758.468-10.137.468H60.366a37.065,37.065,0,0,1-30.619-12.58c-8.318-9.929-8.682-18.767-.832-29.06a32.751,32.751,0,0,1,25.993-13.88c9.1-.312,18.195-.364,27.292-.364h60.823Z" transform="translate(203.023 279.743)" fill="#fff"/>
        <path id="Path_6-2" data-name="Path 6" d="M81.9,42.066h36.13a26.464,26.464,0,0,1,6.914,1.2,7.85,7.85,0,0,1,4.679,13.256,23.237,23.237,0,0,1-13.256,9.669,43.819,43.819,0,0,1-11.229,1.923H54.919a27.812,27.812,0,0,1-19.962-8.526c-3.015-3.067-5.926-6.5-4.419-11.229a10.033,10.033,0,0,1,9.981-6.03c8.474-.624,17-.728,25.525-.936H81.9Z" transform="translate(263.003 356.629)" fill="#fff"/>
        <path id="Path_7-2" data-name="Path 7" d="M80.8,53.024H47.267a39.87,39.87,0,0,1-11.593-1.975A7.122,7.122,0,0,1,31.62,39.716,23.446,23.446,0,0,1,46.747,28.435a51.985,51.985,0,0,1,12.58-1.871h44.5a34.415,34.415,0,0,1,19.287,5.2,23.043,23.043,0,0,1,3.119,2.443c3.327,3.223,6.654,6.758,5.2,11.8s-6.238,6.186-10.4,6.29H81.006Z" transform="translate(262.857 228.736)" fill="#fff"/>
        <path id="Path_8-2" data-name="Path 8" d="M34.336,39.772c0-7.9-.26-15.856,0-23.757A23.393,23.393,0,0,1,36.987,6.4a11.333,11.333,0,0,1,20.274-.26A29.475,29.475,0,0,1,60.433,18.77c.364,14.036.312,28.124,0,42.212a33.948,33.948,0,0,1-2.443,11.489,11.7,11.7,0,0,1-21.626,0,34.206,34.206,0,0,1-2.235-10.4c-.364-7.33,0-14.66,0-21.99Z" transform="translate(296.531 0)" fill="#fff"/>
        <path id="Path_9-2" data-name="Path 9" d="M71.028,68.153H89.535a76.729,76.729,0,0,1,10.969.78,11.541,11.541,0,0,1,9.929,9.825,11.749,11.749,0,0,1-6.758,12.684A23.912,23.912,0,0,1,94.058,94.3c-15.6.26-31.191,0-46.787,0a23.446,23.446,0,0,1-8.786-2.6,12.321,12.321,0,0,1-7.122-13A11.541,11.541,0,0,1,41.4,68.985a64.441,64.441,0,0,1,10.4-.78H70.768Z" transform="translate(272.679 587.221)" fill="#fff"/>
      </g>
    </g>
  </g>
</svg>
