<svg
    version="1.1"
    xmlns="http://www.w3.org/2000/svg"
    viewBox="0 0 512 512"
    height="100%"
    width="100%"
  >
    <g>
      <path
        d="M176.686,332.85h-15.257c-4.143,0-7.5,3.357-7.5,7.5s3.357,7.5,7.5,7.5h15.257c4.143,0,7.5-3.357,7.5-7.5
			S180.828,332.85,176.686,332.85z"
      />
    </g>
    <g>
      <path
        d="M233.091,332.85h-15.256c-4.143,0-7.5,3.357-7.5,7.5s3.357,7.5,7.5,7.5h15.256c4.143,0,7.5-3.357,7.5-7.5
			S237.234,332.85,233.091,332.85z"
      />
    </g>
    <g>
      <path
        d="M289.496,332.85h-15.257c-4.143,0-7.5,3.357-7.5,7.5s3.357,7.5,7.5,7.5h15.257c4.143,0,7.5-3.357,7.5-7.5
			S293.639,332.85,289.496,332.85z"
      />
    </g>
    <g>
      <path
        d="M345.901,332.85h-15.256c-4.143,0-7.5,3.357-7.5,7.5s3.357,7.5,7.5,7.5h15.256c4.143,0,7.5-3.357,7.5-7.5
			S350.044,332.85,345.901,332.85z"
      />
    </g>
    <g>
      <path
        d="M477.339,242.11c-4.143,0-7.5,3.357-7.5,7.5v138.1c0,13.231-10.766,23.995-23.996,23.995c-7.07,0-369.849,0-379.685,0
			c-13.231,0-23.996-10.765-23.996-23.995V76.509c0-13.231,10.766-23.995,23.996-23.995h236.414v11.95h-44.589h-0.616
			c-5.079,0-9.374,3.401-10.741,8.044c-6.998,0-167.057,0-174.155,0h-0.001c-2.461,0-4.722,0.869-6.497,2.313
			c-0.019,0.016-0.041,0.029-0.06,0.045c-0.158,0.13-0.304,0.273-0.454,0.412c-0.092,0.086-0.19,0.165-0.279,0.254
			c-0.089,0.089-0.168,0.187-0.254,0.279c-0.139,0.15-0.282,0.296-0.412,0.454c-0.016,0.019-0.029,0.041-0.045,0.06
			c-1.444,1.775-2.313,4.035-2.313,6.497v0.001c0,14.473,0,285.779,0,298.572c0,5.688,4.628,10.315,10.316,10.315h367.056
			c5.688,0,10.315-4.627,10.315-10.315c0-13.174,0-284.773,0-298.572v-0.001c0-5.332-4.067-9.733-9.262-10.262
			c-0.346-0.035-0.698-0.053-1.053-0.053h-65.551V52.513h71.864c13.231,0,23.996,10.765,23.996,23.995v138.099
			c0,4.142,3.357,7.5,7.5,7.5s7.5-3.357,7.5-7.5V76.509c0-21.502-17.494-38.996-38.997-38.996h-71.864V11.201
			C373.977,5.024,368.953,0,362.776,0h-49.005c-6.175,0-11.2,5.024-11.2,11.201v26.312H66.158
			c-21.503,0-38.997,17.494-38.997,38.996v311.202c0,21.503,17.494,38.996,38.997,38.996h130.011v34.646h-23.92
			c-10.995,0-19.939,8.945-19.939,19.939v10.768c0,10.996,8.945,19.94,19.939,19.94h63.918c4.143,0,7.5-3.357,7.5-7.5
			c0-4.143-3.357-7.5-7.5-7.5h-63.918c-2.723,0-4.938-2.216-4.938-4.939v-10.768c0-2.723,2.216-4.938,4.938-4.938h167.504
			c2.723,0,4.938,2.216,4.938,4.938v10.768c0,2.724-2.216,4.939-4.938,4.939h-68.584c-4.143,0-7.5,3.357-7.5,7.5
			c0,4.143,3.357,7.5,7.5,7.5h68.584c10.995,0,19.939-8.945,19.939-19.94v-10.768c0-10.995-8.945-19.939-19.939-19.939h-23.92
			v-34.646h130.011c21.503,0,38.997-17.493,38.997-38.996v-138.1C484.84,245.467,481.483,242.11,477.339,242.11z M261.165,80.008
			v-0.544h41.405v223.513h-41.405C261.165,277.413,261.165,104.427,261.165,80.008z M138.779,87.509h107.385v33.72H200.96
			c-3.421,0-6.484,1.546-8.541,3.972h-53.64V87.509z M246.164,136.231v166.745h-41.404c0-11.238,0-161.462,0-166.745H246.164z
			 M77.155,87.508h46.623v37.692H77.155V87.508z M373.976,87.508h60.865v37.692h-60.865V87.508z M317.572,15.001h41.404
			c0,11.477,0,278.299,0,287.975h-41.404C317.572,291.344,317.572,26.042,317.572,15.001z M393.237,317.977
			c4.143,0,7.5-3.357,7.5-7.5s-3.357-7.5-7.5-7.5h-19.261V140.201h60.865v236.507H77.155V140.201c24.24,0,91.544,0,112.605,0v34.923
			h-44.589h-0.616c-6.176,0-11.201,5.024-11.201,11.201v0.615v0.001v116.035h-19.26c-4.143,0-7.5,3.357-7.5,7.5s3.357,7.5,7.5,7.5
			C125.027,317.977,383.069,317.977,393.237,317.977z M189.76,190.125v112.851h-41.404V190.125H189.76z M300.83,461.352h-89.661
			v-34.645h89.661V461.352z"
      />
    </g>
  </svg>